<svg xmlns="http://www.w3.org/2000/svg" xmlns:xlink="http://www.w3.org/1999/xlink" width="161.647" height="154.626" viewBox="0 0 161.647 154.626">
  <defs>
    <linearGradient id="linear-gradient" x1="0.5" x2="0.5" y2="1" gradientUnits="objectBoundingBox">
      <stop offset="0" stop-color="#009fff"/>
      <stop offset="0.419" stop-color="#40025f"/>
      <stop offset="1" stop-color="#ec2f4b"/>
    </linearGradient>
  </defs>
  <g id="akira" transform="translate(-20.351 -2.471)">
    <g id="Groupe_53" data-name="Groupe 53">
      <ellipse id="Ellipse_9" data-name="Ellipse 9" cx="40.2" cy="6.202" rx="40.2" ry="6.202" transform="translate(20.351 144.692)" fill="rgba(48,46,46,0.06)"/>
    </g>
    <path id="Tracé_111" data-name="Tracé 111" d="M89.28,3.753A37.994,37.994,0,0,0,42.806,30.72L33.39,66.17l1.564.464A1.06,1.06,0,0,0,35,66.153a4.225,4.225,0,0,0,.84,1.028,27.736,27.736,0,0,0,7.1,4.5c6.807,3.285,16.547,6.382,26.739,8.729a157.551,157.551,0,0,0,28.271,4.116A38.323,38.323,0,0,0,106.922,84c.135-.03.261-.061.377-.09l8.948-33.687A37.994,37.994,0,0,0,89.28,3.753ZM104.511,94.41a64.082,64.082,0,0,1-6.894.106A167.31,167.31,0,0,1,67.433,90.15c-10.564-2.432-21.1-5.732-28.842-9.468a43.85,43.85,0,0,1-7.814-4.674l-8.024,30.21a37.994,37.994,0,1,0,73.441,19.506ZM35,66.153c-.027-.056-.032-.082-.027-.082A.174.174,0,0,1,35,66.153Z" fill-rule="evenodd" fill="url(#linear-gradient)"/>
    <path id="Tracé_112" data-name="Tracé 112" d="M51.166,23.077c2.2-5.8,11.431-14.413,18.349-19.438-3.928,5.746-10.7,16.908-11.439,24.522S46.891,63.9,46.293,73.049c-2.9-1.148-7.4-2.986-8.409-4.364C38.854,59.187,48.879,29.116,51.166,23.077Z" fill="rgba(255,255,255,0.12)"/>
    <path id="Tracé_113" data-name="Tracé 113" d="M24,118.544c0,6.178,5.743,17.459,10.567,24.58-1.684-6.739-4.135-19.526-2.067-26.877s7.121-24.579,9.878-33.308A72.834,72.834,0,0,1,33.648,78.8C31.121,87.992,24,112.112,24,118.544Z" fill="rgba(255,255,255,0.12)"/>
    <g id="Groupe_54" data-name="Groupe 54">
      <ellipse id="Ellipse_10" data-name="Ellipse 10" cx="14.937" cy="2.305" rx="14.937" ry="2.305" transform="translate(126.18 137.18)" fill="rgba(48,46,46,0.06)"/>
    </g>
    <path id="Tracé_114" data-name="Tracé 114" d="M180.089,103.6a14.118,14.118,0,0,0-19.3-5.125l-11.378,6.6a14.629,14.629,0,0,0,.451,2.555,46.416,46.416,0,0,0,4.438,10.348,50.978,50.978,0,0,0,6.406,9.185,12.339,12.339,0,0,0,2.668,2.314c.044.025.085.048.124.068l11.462-6.65A14.119,14.119,0,0,0,180.089,103.6Zm-19.46,27.615a19.537,19.537,0,0,1-2.124-2.017,53.938,53.938,0,0,1-6.819-9.751,49.309,49.309,0,0,1-4.725-11.068c-.146-.564-.268-1.123-.362-1.668l-10.912,6.332a14.117,14.117,0,1,0,14.171,24.421Z" fill-rule="evenodd" fill="url(#linear-gradient)"/>
    <path id="Tracé_115" data-name="Tracé 115" d="M132.45,117.451c-1.623,1.623-3.078,6.1-3.682,9.234,1.328-2.213,4.044-6.216,6.519-7.6s8.329-4.587,11.346-6.156a27.112,27.112,0,0,1-1.207-3.38C142.348,111.295,134.14,115.761,132.45,117.451Z" fill="rgba(255,255,255,0.12)"/>
    <path id="Tracé_116" data-name="Tracé 116" d="M165.417,98.766c2.1-.947,4.945-.5,8.083,0a16.842,16.842,0,0,0-7.6,3.152c-2.193,1.807-12.33,6.452-14.89,8.7a10.28,10.28,0,0,1-1.062-3.356C152.694,105.019,163.229,99.752,165.417,98.766Z" fill="rgba(255,255,255,0.12)"/>
  </g>
</svg>
