<svg width="137" height="339" viewBox="0 0 137 339" fill="none" xmlns="http://www.w3.org/2000/svg">
<path fill-rule="evenodd" clip-rule="evenodd" d="M10.5 16.5L107.5 0L118 7.5V8.5L122 10L121.016 322C125.718 323.03 134.492 324.89 136.214 325.038C133.754 325.775 116.407 334.468 107.5 339L0 315.5L10.5 311V16.5ZM136.5 325C136.475 324.975 136.377 324.989 136.214 325.038C136.443 325.058 136.547 325.047 136.5 325ZM18.5 186V26L99.5 12.5V190.5L18.5 186ZM42.5 52.5C43 57 44.7 66.1 47.5 66.5L42.5 131L53 143L65.5 126L53 66.5C56.3333 61.8333 61.8 50.5 59 50.5C57.7653 50.5 55.2861 50.8889 52.5141 51.3237C49.0001 51.875 45.0156 52.5 42.5 52.5Z" fill="url(#paint0_linear)"/>
<defs>
<linearGradient id="paint0_linear" x1="-1.8331e-06" y1="17.289" x2="212.279" y2="139.964" gradientUnits="userSpaceOnUse">
<stop stop-color="#009FFF"/>
<stop offset="0.463" stop-color="#40025F"/>
<stop offset="1" stop-color="#EC2F4B"/>
</linearGradient>
</defs>
</svg>
