<svg width="100" height="125" viewBox="0 0 100 125" fill="none" xmlns="http://www.w3.org/2000/svg">
<path d="M27.7001 45.8C28.4001 45.8 28.9 45.2 28.9 44.5C28.9 44.3 28.9 44 28.9 43.8C30.9 43.2 32.4001 41.4 32.4001 39.3C32.4001 36.7 30.3 34.5 27.6 34.5C25.0001 34.5 22.8 36.6 22.8 39.3C22.8 41.5 24.3 43.3 26.3 43.9C26.3 44.2 26.3 44.4 26.4 44.7C26.4 45.3 26.9001 45.8 27.7001 45.8C27.6001 45.8 27.6001 45.8 27.7001 45.8ZM27.5 36.9C28.7 36.9 29.7001 37.9 29.7001 39.1C29.7001 40.3 28.7 41.3 27.5 41.3C26.3 41.3 25.3 40.3 25.3 39.1C25.3 37.9 26.2 36.9 27.5 36.9Z" fill="url(#paint0_linear)"/>
<path d="M30 52.0999C29.7 51.2999 29.5 50.2999 29.4 49.2999C29.3 48.5999 28.6 48.1999 28 48.2999C27.3 48.3999 26.9 49.0999 27 49.6999C27.2 50.7999 27.4 51.8999 27.7 52.7999C27.9 53.2999 28.4 53.6999 28.9 53.6999C29 53.6999 29.1 53.6999 29.3 53.5999C29.9 53.3999 30.2 52.6999 30 52.0999Z" fill="url(#paint1_linear)"/>
<path d="M34.1 57.0999C33.4 56.8999 32.7 56.4999 32.1 55.8999C31.6 55.3999 30.8 55.3999 30.3 55.8999C29.8 56.3999 29.8 57.1999 30.3 57.6999C31.2 58.5999 32.3001 59.1999 33.4001 59.4999C33.5001 59.4999 33.6001 59.4999 33.7001 59.4999C34.3001 59.4999 34.8001 59.0999 34.9001 58.5999C35.1001 57.9999 34.7 57.2999 34.1 57.0999Z" fill="url(#paint2_linear)"/>
<path d="M53.1 43.7999C52.6 43.2999 51.8 43.3999 51.3 43.8999C50.7 44.4999 50.1 45.2999 49.3 46.1999C48.9 46.6999 48.9 47.4999 49.5 47.9999C49.7 48.1999 50 48.2999 50.3 48.2999C50.7 48.2999 51 48.0999 51.3 47.8999C52.1 46.9999 52.7 46.2999 53.2 45.6999C53.6 45.0999 53.6 44.2999 53.1 43.7999Z" fill="url(#paint3_linear)"/>
<path d="M46.1 50C45.4 50.9 44.7 51.6 44.1 52.2C43.6 52.7 43.6 53.5 44.1 54C44.3 54.2 44.7 54.3 45 54.3C45.3 54.3 45.7 54.2 45.9 53.9C46.5 53.2 47.2 52.5 48 51.6C48.4 51.1 48.4 50.3 47.9 49.8C47.3 49.4 46.6 49.5 46.1 50Z" fill="url(#paint4_linear)"/>
<path d="M64.1 39.0002C63.5 38.7002 62.7 38.9002 62.4 39.6002C62.1 40.2002 62.3 41.0002 63 41.3002C63.6 41.6002 64.2 42.2002 64.7 42.9002C64.9 43.3002 65.3 43.5002 65.7 43.5002C65.9 43.5002 66.2 43.4002 66.4 43.3002C67 42.9002 67.1 42.2002 66.8 41.6002C66 40.3002 65.1 39.5002 64.1 39.0002Z" fill="url(#paint5_linear)"/>
<path d="M75 63.6002C75 62.9002 74.4 62.4002 73.8 62.4002H72.9V59.9002C72.9 59.2002 72.3 58.7002 71.7 58.7002C71.1 58.7002 70.5 59.3002 70.5 59.9002V63.6002C70.5 64.3002 71.1 64.9002 71.7 64.9002H73.8C74.4 64.8002 75 64.3002 75 63.6002Z" fill="url(#paint6_linear)"/>
<path d="M81.9 46.4V21C81.9 20.6 81.7 20.2 81.3 20C81 19.8 80.5 19.7 80.1 19.9L59.3 28.7L38.5 19.9C38.5 19.9 38.4 19.9 38.3 19.9H38.2C38.1 19.9 38.1 19.9 38 19.9C37.9 19.9 37.9 19.9 37.8 19.9H37.7C37.6 19.9 37.6 19.9 37.5 19.9L16.2 28.9C15.7 29.1 15.4 29.5 15.4 30.1V74.3C15.4 74.7 15.6 75.1 16 75.3C16.2 75.4 16.4 75.5 16.7 75.5C16.9 75.5 17 75.5 17.2 75.4L38 66.6L54.9 73.7C58.3 79.9 64.9 84.2 72.5 84.2C83.6 84.2 92.6 75.2 92.6 64.1C92.6 56.5 88.3 49.8 81.9 46.4ZM60.6 30.9L79.4 23V45.4C77.3 44.6 74.9 44.2 72.5 44.2C68 44.2 63.9 45.7 60.5 48.2V30.9H60.6ZM70.2 69.6C69.7 69.4 69.2 69.1 68.8 68.8C68.4 68.5 68 68.2 67.8 68C67.9 67.2 67.8 66.2 67.4 65.1C66.7 63.1 66.4 61.7 66.5 59.9C66.8 57.2 69.4 54.8 72.3 54.8H72.4C75.3 54.8 78 57.1 78.2 59.9C78.4 61.7 78 63.1 77.3 65.1C77.1 65.6 77 66.1 76.9 66.6C76.8 67.1 76.8 67.5 76.9 68C75.4 69.4 73.8 70 72.2 70C72.1 70 72.1 70 72 70C71.6 70.1 70.9 69.9 70.2 69.6ZM59.1 75.4L59 75.3C59 75.2 59.1 75.1 59.1 75.1C59.4 74.6 59.8 74.2 60.3 73.8C60.4 73.7 60.5 73.7 60.5 73.6C61.5 72.9 62.7 72.3 63.9 71.8C64.5 71.5 65.1 71.2 65.7 70.9C66 70.7 66.3 70.5 66.5 70.3C66.7 70.5 67 70.7 67.2 70.8C67.6 71.1 68 71.3 68.5 71.6C69.5 72.1 70.8 72.5 72.2 72.6C72.3 72.6 72.3 72.6 72.4 72.6C74.4 72.6 76.4 71.8 78.2 70.3C78.4 70.5 78.7 70.7 79 70.9C79.6 71.2 80.2 71.5 80.8 71.8C82.7 72.7 84.6 73.6 85.6 75.1C85.7 75.2 85.7 75.3 85.8 75.4C82.6 79.2 77.7 81.7 72.3 81.7C67.2 81.7 62.3 79.3 59.1 75.4C59.1 75.5 59.1 75.4 59.1 75.4ZM87.5 73.2C86.1 71.4 84 70.4 82 69.5C81.4 69.2 80.8 69 80.3 68.7C79.8 68.4 79.4 68.1 79.5 67C79.5 66.7 79.6 66.4 79.8 66C79.9 65.8 79.9 65.7 80 65.5C80.3 64.7 80.5 64 80.6 63.3C80.8 62.1 80.9 61 80.8 59.7C80.8 59.3 80.7 59 80.6 58.6C80.4 57.6 79.9 56.8 79.4 56C77.9 53.9 75.3 52.4 72.5 52.4H72.4C70.7 52.4 69.1 52.9 67.7 53.9C66.9 54.5 66.1 55.2 65.5 56C64.7 57.1 64.2 58.4 64 59.8C63.7 62.3 64.3 64.2 65 66.1C65.7 68 65.1 68.5 64.5 68.8C64 69.1 63.4 69.3 62.8 69.6C62.1 70 61.3 70.3 60.5 70.7C60.1 70.9 59.7 71.2 59.3 71.5C58.9 71.8 58.4 72.1 58.1 72.5C57.9 72.7 57.7 72.9 57.5 73.2C57.2 72.8 57 72.3 56.8 71.9C55.7 69.6 55 67 55 64.3C55 60.6 56.1 57.2 58.1 54.4C58.5 53.8 58.9 53.3 59.3 52.8C59.7 52.3 60.1 51.9 60.5 51.5C62.1 50 64 48.8 66.1 48C66.9 47.7 67.7 47.4 68.5 47.2C69.8 46.9 71.1 46.7 72.5 46.7C74.9 46.7 77.3 47.2 79.4 48.1C79.8 48.3 80.2 48.5 80.6 48.7C81 48.9 81.4 49.2 81.8 49.4C86.7 52.5 90 58 90 64.2C90.1 67.5 89.2 70.6 87.5 73.2ZM39.2 64.4V58.9C40.1 58.5 41 58 42 57.4C42.6 57 42.7 56.2 42.3 55.7C41.9 55.1 41.1 55 40.6 55.4C40.1 55.7 39.7 56 39.3 56.2V22.9L58.1 30.8V38.8C57.2 39.1 56.2 39.6 55.3 40.3C54.7 40.7 54.6 41.5 55 42C55.2 42.4 55.6 42.5 56 42.5C56.2 42.5 56.5 42.4 56.7 42.3C57.2 42 57.6 41.7 58.1 41.5V50.2C54.6 53.8 52.5 58.7 52.5 64.1C52.5 66.3 52.9 68.4 53.5 70.4L39.2 64.4ZM17.9 30.9L36.7 23V64.5L17.9 72.4V30.9Z" fill="url(#paint7_linear)"/>
<defs>
<linearGradient id="paint0_linear" x1="22.8" y1="35.0763" x2="30.809" y2="44.8408" gradientUnits="userSpaceOnUse">
<stop stop-color="#009FFF"/>
<stop offset="0.463" stop-color="#40025F"/>
<stop offset="1" stop-color="#EC2F4B"/>
</linearGradient>
<linearGradient id="paint1_linear" x1="26.9848" y1="48.5608" x2="30.8184" y2="51.6868" gradientUnits="userSpaceOnUse">
<stop stop-color="#009FFF"/>
<stop offset="0.463" stop-color="#40025F"/>
<stop offset="1" stop-color="#EC2F4B"/>
</linearGradient>
<linearGradient id="paint2_linear" x1="29.925" y1="55.7276" x2="32.3536" y2="60.1352" gradientUnits="userSpaceOnUse">
<stop stop-color="#009FFF"/>
<stop offset="0.463" stop-color="#40025F"/>
<stop offset="1" stop-color="#EC2F4B"/>
</linearGradient>
<linearGradient id="paint3_linear" x1="49.0212" y1="43.7175" x2="52.3754" y2="48.1708" gradientUnits="userSpaceOnUse">
<stop stop-color="#009FFF"/>
<stop offset="0.463" stop-color="#40025F"/>
<stop offset="1" stop-color="#EC2F4B"/>
</linearGradient>
<linearGradient id="paint4_linear" x1="43.725" y1="49.7953" x2="46.9853" y2="54.2935" gradientUnits="userSpaceOnUse">
<stop stop-color="#009FFF"/>
<stop offset="0.463" stop-color="#40025F"/>
<stop offset="1" stop-color="#EC2F4B"/>
</linearGradient>
<linearGradient id="paint5_linear" x1="62.265" y1="39.1016" x2="65.3924" y2="43.6516" gradientUnits="userSpaceOnUse">
<stop stop-color="#009FFF"/>
<stop offset="0.463" stop-color="#40025F"/>
<stop offset="1" stop-color="#EC2F4B"/>
</linearGradient>
<linearGradient id="paint6_linear" x1="70.5" y1="59.0164" x2="74.9771" y2="63.6798" gradientUnits="userSpaceOnUse">
<stop stop-color="#009FFF"/>
<stop offset="0.463" stop-color="#40025F"/>
<stop offset="1" stop-color="#EC2F4B"/>
</linearGradient>
<linearGradient id="paint7_linear" x1="15.4" y1="23.0759" x2="55.8523" y2="92.6578" gradientUnits="userSpaceOnUse">
<stop stop-color="#009FFF"/>
<stop offset="0.463" stop-color="#40025F"/>
<stop offset="1" stop-color="#EC2F4B"/>
</linearGradient>
</defs>
</svg>
