<svg width="78" height="66" viewBox="0 0 78 66" fill="none" xmlns="http://www.w3.org/2000/svg">
<path d="M12.7 26.8C13.4 26.8 13.9 26.2 13.9 25.5C13.9 25.3 13.9 25 13.9 24.8C15.9 24.2 17.4 22.4 17.4 20.3C17.4 17.7 15.3 15.5 12.6 15.5C10 15.5 7.80002 17.6 7.80002 20.3C7.80002 22.5 9.30002 24.3 11.3 24.9C11.3 25.2 11.3 25.4 11.4 25.7C11.4 26.3 11.9 26.8 12.7 26.8C12.6 26.8 12.6 26.8 12.7 26.8ZM12.5 17.9C13.7 17.9 14.7 18.9 14.7 20.1C14.7 21.3 13.7 22.3 12.5 22.3C11.3 22.3 10.3 21.3 10.3 20.1C10.3 18.9 11.2 17.9 12.5 17.9Z" fill="#C4C4C4"/>
<path d="M15 33.1C14.7 32.3 14.5 31.3 14.4 30.3C14.3 29.6 13.6 29.2 13 29.3C12.3 29.4 11.9 30.1 12 30.7C12.2 31.8 12.4 32.9 12.7 33.8C12.9 34.3 13.4 34.7 13.9 34.7C14 34.7 14.1 34.7 14.3 34.6C14.9 34.4 15.2 33.7 15 33.1Z" fill="#C4C4C4"/>
<path d="M19.1 38.1C18.4 37.9 17.7 37.5 17.1 36.9C16.6 36.4 15.8 36.4 15.3 36.9C14.8 37.4 14.8 38.2 15.3 38.7C16.2 39.6 17.3 40.2 18.4 40.5C18.5 40.5 18.6 40.5 18.7 40.5C19.3 40.5 19.8 40.1 19.9 39.6C20.1 39 19.7 38.3 19.1 38.1Z" fill="#C4C4C4"/>
<path d="M38.1 24.8C37.6 24.3 36.8 24.4 36.3 24.9C35.7 25.5 35.1 26.3 34.3 27.2C33.9 27.7 33.9 28.5 34.5 29C34.7 29.2 35 29.3 35.3 29.3C35.7 29.3 36 29.1 36.3 28.9C37.1 28 37.7 27.3 38.2 26.7C38.6 26.1 38.6 25.3 38.1 24.8Z" fill="#C4C4C4"/>
<path d="M31.1 31C30.4 31.9 29.7 32.6 29.1 33.2C28.6 33.7 28.6 34.5 29.1 35C29.3 35.2 29.7 35.3 30 35.3C30.3 35.3 30.7 35.2 30.9 34.9C31.5 34.2 32.2 33.5 33 32.6C33.4 32.1 33.4 31.3 32.9 30.8C32.3 30.4 31.6 30.5 31.1 31Z" fill="#C4C4C4"/>
<path d="M49.1 20C48.5 19.7 47.7 19.9 47.4 20.6C47.1 21.2 47.3 22 48 22.3C48.6 22.6 49.2 23.2 49.7 23.9C49.9 24.3 50.3 24.5 50.7 24.5C50.9 24.5 51.2 24.4 51.4 24.3C52 23.9 52.1 23.2 51.8 22.6C51 21.3 50.1 20.5 49.1 20Z" fill="#C4C4C4"/>
<path d="M60 44.6C60 43.9 59.4 43.4 58.8 43.4H57.9V40.9C57.9 40.2 57.3 39.7 56.7 39.7C56.1 39.7 55.5 40.3 55.5 40.9V44.6C55.5 45.3 56.1 45.9 56.7 45.9H58.8C59.4 45.8 60 45.3 60 44.6Z" fill="#C4C4C4"/>
<path d="M66.9 27.4V2.00003C66.9 1.60003 66.7 1.20003 66.3 1.00003C66 0.800033 65.5 0.700032 65.1 0.900032L44.3 9.70003L23.5 0.900032C23.5 0.900032 23.4 0.900032 23.3 0.900032H23.2C23.1 0.900032 23.1 0.900032 23 0.900032C22.9 0.900032 22.9 0.900032 22.8 0.900032H22.7C22.6 0.900032 22.6 0.900032 22.5 0.900032L1.20003 9.90003C0.700026 10.1 0.400024 10.5 0.400024 11.1V55.3C0.400024 55.7 0.600025 56.1 1.00002 56.3C1.20002 56.4 1.40003 56.5 1.70003 56.5C1.90003 56.5 2.00003 56.5 2.20003 56.4L23 47.6L39.9 54.7C43.3 60.9 49.9 65.2 57.5 65.2C68.6 65.2 77.6 56.2 77.6 45.1C77.6 37.5 73.3 30.8 66.9 27.4ZM45.6 11.9L64.4 4.00003V26.4C62.3 25.6 59.9 25.2 57.5 25.2C53 25.2 48.9 26.7 45.5 29.2V11.9H45.6ZM55.2 50.6C54.7 50.4 54.2 50.1 53.8 49.8C53.4 49.5 53 49.2 52.8 49C52.9 48.2 52.8 47.2 52.4 46.1C51.7 44.1 51.4 42.7 51.5 40.9C51.8 38.2 54.4 35.8 57.3 35.8H57.4C60.3 35.8 63 38.1 63.2 40.9C63.4 42.7 63 44.1 62.3 46.1C62.1 46.6 62 47.1 61.9 47.6C61.8 48.1 61.8 48.5 61.9 49C60.4 50.4 58.8 51 57.2 51C57.1 51 57.1 51 57 51C56.6 51.1 55.9 50.9 55.2 50.6ZM44.1 56.4L44 56.3C44 56.2 44.1 56.1 44.1 56.1C44.4 55.6 44.8 55.2 45.3 54.8C45.4 54.7 45.5 54.7 45.5 54.6C46.5 53.9 47.7 53.3 48.9 52.8C49.5 52.5 50.1 52.2 50.7 51.9C51 51.7 51.3 51.5 51.5 51.3C51.7 51.5 52 51.7 52.2 51.8C52.6 52.1 53 52.3 53.5 52.6C54.5 53.1 55.8 53.5 57.2 53.6C57.3 53.6 57.3 53.6 57.4 53.6C59.4 53.6 61.4 52.8 63.2 51.3C63.4 51.5 63.7 51.7 64 51.9C64.6 52.2 65.2 52.5 65.8 52.8C67.7 53.7 69.6 54.6 70.6 56.1C70.7 56.2 70.7 56.3 70.8 56.4C67.6 60.2 62.7 62.7 57.3 62.7C52.2 62.7 47.3 60.3 44.1 56.4ZM72.5 54.2C71.1 52.4 69 51.4 67 50.5C66.4 50.2 65.8 50 65.3 49.7C64.8 49.4 64.4 49.1 64.5 48C64.5 47.7 64.6 47.4 64.8 47C64.9 46.8 64.9 46.7 65 46.5C65.3 45.7 65.5 45 65.6 44.3C65.8 43.1 65.9 42 65.8 40.7C65.8 40.3 65.7 40 65.6 39.6C65.4 38.6 64.9 37.8 64.4 37C62.9 34.9 60.3 33.4 57.5 33.4H57.4C55.7 33.4 54.1 33.9 52.7 34.9C51.9 35.5 51.1 36.2 50.5 37C49.7 38.1 49.2 39.4 49 40.8C48.7 43.3 49.3 45.2 50 47.1C50.7 49 50.1 49.5 49.5 49.8C49 50.1 48.4 50.3 47.8 50.6C47.1 51 46.3 51.3 45.5 51.7C45.1 51.9 44.7 52.2 44.3 52.5C43.9 52.8 43.4 53.1 43.1 53.5C42.9 53.7 42.7 53.9 42.5 54.2C42.2 53.8 42 53.3 41.8 52.9C40.7 50.6 40 48 40 45.3C40 41.6 41.1 38.2 43.1 35.4C43.5 34.8 43.9 34.3 44.3 33.8C44.7 33.3 45.1 32.9 45.5 32.5C47.1 31 49 29.8 51.1 29C51.9 28.7 52.7 28.4 53.5 28.2C54.8 27.9 56.1 27.7 57.5 27.7C59.9 27.7 62.3 28.2 64.4 29.1C64.8 29.3 65.2 29.5 65.6 29.7C66 29.9 66.4 30.2 66.8 30.4C71.7 33.5 75 39 75 45.2C75.1 48.5 74.2 51.6 72.5 54.2ZM24.2 45.4V39.9C25.1 39.5 26 39 27 38.4C27.6 38 27.7 37.2 27.3 36.7C26.9 36.1 26.1 36 25.6 36.4C25.1 36.7 24.7 37 24.3 37.2V3.90003L43.1 11.8V19.8C42.2 20.1 41.2 20.6 40.3 21.3C39.7 21.7 39.6 22.5 40 23C40.2 23.4 40.6 23.5 41 23.5C41.2 23.5 41.5 23.4 41.7 23.3C42.2 23 42.6 22.7 43.1 22.5V31.2C39.6 34.8 37.5 39.7 37.5 45.1C37.5 47.3 37.9 49.4 38.5 51.4L24.2 45.4ZM2.90002 11.9L21.7 4.00003V45.5L2.90002 53.4V11.9Z" fill="#C4C4C4"/>
</svg>
