<svg xmlns="http://www.w3.org/2000/svg" xmlns:xlink="http://www.w3.org/1999/xlink" width="32" height="32" viewBox="0 0 32 32">
  <defs>
    <linearGradient id="linear-gradient" x1="-0.106" y1="0.5" x2="0.753" y2="0.83" gradientUnits="objectBoundingBox">
      <stop offset="0" stop-color="#009fff"/>
      <stop offset="0.567" stop-color="#40025f"/>
      <stop offset="1" stop-color="#ec2f4b"/>
    </linearGradient>
  </defs>
  <path id="Tracé_31" data-name="Tracé 31" d="M1322.2,320a16,16,0,1,1,16-16,16.015,16.015,0,0,1-16,16Zm13.494-13.812a20,20,0,0,0-8.512-.581,59.411,59.411,0,0,1,2.656,9.744,13.688,13.688,0,0,0,5.856-9.163Zm-8.157,10.412a56.957,56.957,0,0,0-2.913-10.363c-.031.012-.063.019-.087.031-7.713,2.688-10.481,8.031-10.725,8.531a13.635,13.635,0,0,0,13.725,1.8h0Zm-15.493-3.444c.313-.531,4.063-6.738,11.106-9.019.175-.056.356-.113.538-.162-.344-.775-.719-1.556-1.106-2.319a50.678,50.678,0,0,1-14.044,1.95c-.006.137-.006.275-.006.419a13.6,13.6,0,0,0,3.512,9.131Zm-3.219-11.937a51.269,51.269,0,0,0,12.637-1.662,86.02,86.02,0,0,0-5.069-7.906,13.712,13.712,0,0,0-7.569,9.569h0ZM1319,290.731a73.218,73.218,0,0,1,5.1,8c4.863-1.819,6.919-4.588,7.163-4.938a13.6,13.6,0,0,0-9.063-3.444,14.22,14.22,0,0,0-3.2.381h0Zm13.781,4.65a18.245,18.245,0,0,1-7.631,5.388c.319.65.625,1.313.906,1.981.1.238.2.469.294.706a32.13,32.13,0,0,1,9.519.438,13.628,13.628,0,0,0-3.087-8.512h0Z" transform="translate(-1306.2 -288)" fill="url(#linear-gradient)"/>
</svg>
