<svg xmlns="http://www.w3.org/2000/svg" xmlns:xlink="http://www.w3.org/1999/xlink" width="21.66" height="17.328" viewBox="0 0 21.66 17.328">
  <defs>
    <linearGradient id="linear-gradient" x1="0.52" x2="0.535" y2="1" gradientUnits="objectBoundingBox">
      <stop offset="0" stop-color="#009fff"/>
      <stop offset="0.065" stop-color="#009fff"/>
      <stop offset="0.77" stop-color="#40025f"/>
      <stop offset="1" stop-color="#ec2f4b"/>
    </linearGradient>
  </defs>
  <path id="Tracé_107" data-name="Tracé 107" d="M1315.593,98.823h17.328a2.123,2.123,0,0,1,.885.192l-9.549,11.14-9.549-11.14a2.12,2.12,0,0,1,.885-.192Zm-2.166,15.162v-13c0-.046,0-.091,0-.136l6.351,7.409-6.281,6.282a2.128,2.128,0,0,1-.075-.559Zm19.494,2.166h-17.328a2.184,2.184,0,0,1-.56-.075l6.164-6.164,3.061,3.57,3.059-3.57,6.164,6.164a2.187,2.187,0,0,1-.56.075Zm2.166-2.166a2.186,2.186,0,0,1-.075.559l-6.282-6.282,6.351-7.409c0,.045.005.09.005.136v13Z" transform="translate(-1313.427 -98.823)" fill="url(#linear-gradient)"/>
</svg>
