<svg xmlns="http://www.w3.org/2000/svg" xmlns:xlink="http://www.w3.org/1999/xlink" width="32" height="31.21" viewBox="0 0 32 31.21">
  <defs>
    <linearGradient id="linear-gradient" x1="0.681" y1="0.395" x2="0.5" y2="1" gradientUnits="objectBoundingBox">
      <stop offset="0" stop-color="#009fff"/>
      <stop offset="0.567" stop-color="#40025f"/>
      <stop offset="1" stop-color="#ec2f4b"/>
    </linearGradient>
  </defs>
  <path id="Tracé_32" data-name="Tracé 32" d="M1322.013,240.4a16,16,0,0,0-5.058,31.182c.8.148,1.094-.347,1.094-.77,0-.381-.015-1.642-.022-2.979-4.452.968-5.391-1.888-5.391-1.888a4.24,4.24,0,0,0-1.776-2.341c-1.452-.993.11-.973.11-.973a3.363,3.363,0,0,1,2.452,1.649,3.406,3.406,0,0,0,4.656,1.33,3.405,3.405,0,0,1,1.016-2.14c-3.554-.4-7.29-1.777-7.29-7.907a6.192,6.192,0,0,1,1.649-4.295,5.748,5.748,0,0,1,.155-4.234s1.344-.43,4.4,1.64a15.16,15.16,0,0,1,8.013,0c3.054-2.07,4.4-1.64,4.4-1.64a5.742,5.742,0,0,1,.157,4.234,6.179,6.179,0,0,1,1.647,4.295c0,6.145-3.743,7.5-7.306,7.9a3.825,3.825,0,0,1,1.085,2.963c0,2.141-.019,3.864-.019,4.391,0,.426.288.925,1.1.768a16,16,0,0,0-5.067-31.18Z" transform="translate(-1306.013 -240.395)" fill="url(#linear-gradient)"/>
</svg>
