<svg width="100" height="125" viewBox="0 0 100 125" fill="none" xmlns="http://www.w3.org/2000/svg">
<path d="M64.7 51.2998C64.7 55.1998 67.8 58.2998 71.7 58.2998C75.6 58.2998 78.7 55.1998 78.7 51.2998C78.7 47.3998 75.6 44.2998 71.7 44.2998C67.9 44.2998 64.7 47.3998 64.7 51.2998ZM71.7 55.7998C69.2 55.7998 67.2 53.7998 67.2 51.2998C67.2 48.7998 69.2 46.7998 71.7 46.7998C74.2 46.7998 76.2 48.7998 76.2 51.2998C76.2 53.6998 74.2 55.7998 71.7 55.7998Z" fill="url(#paint0_linear)"/>
<path d="M73 60.5998C67.5 60.5998 62.9 64.7998 62.3 70.1998C61.8 69.1998 61.3 68.1998 61 67.4998C60.8 66.9998 60.6 66.4998 60.4 66.0998C59.9 64.8998 58.4 62.9998 55.8 62.9998L54.9 60.3998H55C55.9 60.0998 56.6 59.3998 57 58.5998C57.4 57.6998 57.5 56.7998 57.1 55.8998L56 52.6998C55.5 51.2998 54.1 50.2998 52.6 50.2998C52.2 50.2998 51.8 50.3998 51.4 50.4998L49 51.3998C48.1 51.6998 47.4 52.3998 47 53.1998C46.6 54.0998 46.5 54.9998 46.9 55.8998L48.1 59.0998C48.6 60.4998 50 61.4998 51.5 61.4998C51.9 61.4998 52.3 61.3998 52.7 61.2998L53.5 63.5998C53 63.8998 52.5 64.2998 52.2 64.7998C51.2 66.3998 51.6 68.2998 51.7 68.6998C52.6 74.7998 57 85.8998 66.8 85.8998C67.1 85.8998 67.3 85.8998 67.6 85.8998C67.8 85.8998 71.4 85.4998 75.2 83.6998C77.2 82.6998 79.3 81.2998 80.9 79.2998C81.1 79.0998 81.2 78.7998 81.4 78.5998V84.4998V84.6998C81.4 85.3998 82 85.8998 82.6 85.8998C83.3 85.8998 83.8 85.2998 83.8 84.6998V71.3998C83.8 65.4998 78.9 60.5998 73 60.5998ZM78.8 77.7998C76.2 81.0998 71.9 82.4998 69.3 83.0998C68.1 83.3998 67.2 83.4998 67.2 83.4998C66.2 83.5998 65.2 83.4998 64.3 83.1998C63.5 82.9998 62.8 82.6998 62.1 82.3998C55.7 78.8998 54 68.4998 54 68.3998V68.2998C53.9 67.9998 53.8 66.8998 54.2 66.1998C54.3 65.9998 54.5 65.7998 55.1 65.5998C57.2 65.1998 57.9 66.7998 58.1 67.0998V67.1998C58.3 67.4998 58.5 67.9998 58.7 68.4998C59.7 70.8998 60.8 73.2998 62.2 74.8998C62.6 75.3998 63 75.7998 63.4 76.0998C63.8 76.3998 64.2 76.5998 64.6 76.7998C64.8 76.8998 65 76.8998 65.2 76.9998C66.1 77.1998 67.4 76.9998 68.8 75.4998C70.8 73.2998 71.5 69.3998 71.5 69.1998C71.5 69.0998 71.5 68.9998 71.5 68.9998C71.5 68.3998 71.1 67.8998 70.5 67.7998C69.8 67.6998 69.2 68.0998 69.1 68.7998C68.9 69.6998 68.3 72.4998 67 73.7998C66.2 74.5998 65.8 74.4998 65.6 74.4998C65.3 74.3998 64.9 74.1998 64.6 73.8998V71.3998C64.6 66.7998 68.3 63.0998 72.9 63.0998C76.5 63.0998 79.6 65.4998 80.7 68.6998C80.7 68.6998 80.7 68.6998 80.7 68.7998V68.8998C81.3 72.3998 80.7 75.3998 78.8 77.7998ZM50.4 58.2998L49.2 55.0998C49.1 54.7998 49.1 54.4998 49.2 54.2998C49.3 53.9998 49.5 53.7998 49.8 53.6998L52.2 52.7998C52.3 52.7998 52.4 52.6998 52.6 52.6998C53.1 52.6998 53.5 52.9998 53.6 53.3998L54.8 56.5998C54.9 56.8998 54.9 57.1998 54.8 57.3998C54.7 57.6998 54.5 57.8998 54.2 57.9998L51.8 58.8998C51.2 59.0998 50.6 58.7998 50.4 58.2998Z" fill="url(#paint1_linear)"/>
<path d="M28 57.5C31.9 57.5 35 54.4 35 50.5C35 46.6 31.9 43.5 28 43.5C24.1 43.5 21 46.6 21 50.5C21 54.4 24.2 57.5 28 57.5ZM28 46C30.5 46 32.5 48 32.5 50.5C32.5 53 30.5 55 28 55C25.5 55 23.5 53 23.5 50.5C23.5 48 25.6 46 28 46Z" fill="url(#paint2_linear)"/>
<path d="M45 67.6001C45.3 66.6001 45.4 65.4001 44.8 64.2001C44 62.6001 42.8 62.3001 42.1 62.3001C40.5 62.2001 39.1 63.4001 38.4 64.5001C38 65.1001 37.5 65.6001 36.9 66.0001C35.2 62.3001 31.4 59.6001 27.1 59.6001C21.2 59.6001 16.3 64.4001 16.3 70.4001V82.3001C16.3 83.0001 16.9 83.5001 17.5 83.5001C18.2 83.5001 18.7 82.9001 18.7 82.3001V82.2001V73.6001C20.1 76.5001 22.4 79.2001 24.8 80.8001C25.3 81.1001 25.8 81.4001 26.4 81.7001C28.2 82.6001 30.2 83.0001 32.1 83.0001C33.5 83.0001 34.9 82.8001 36.4 82.4001H36.5C36.8 82.4001 37 82.3001 37.2 82.1001C41 80.9001 44.7 78.6001 47.3 75.6001C48.8 74.0001 49.6 70.5001 48.4 68.6001C48.1 68.4001 47.1 67.2001 45 67.6001ZM37.8 79.6001C37.4 79.8001 37 79.9001 36.6 80.0001C36.2 80.1001 35.8 80.2001 35.4 80.3001C32.2 81.0001 29 80.7001 26.3 79.0001C22.7 76.5001 19.2 71.0001 20 67.0001C20 66.8001 20.1 66.6001 20.1 66.4001V66.3001C20.1 66.2001 20.1 66.1001 20.1 66.0001C21.6 63.8001 24.1 62.3001 27 62.3001C30.5 62.3001 33.4 64.4001 34.7 67.5001C34.9 67.9001 35 68.3001 35.1 68.7001C35.2 69.1001 35.3 69.6001 35.3 70.0001C35.3 70.2001 35.3 70.4001 35.3 70.6001V70.7001V72.3001C33.6 71.4001 32.3 68.6001 32 67.5001C31.8 66.8001 31.1 66.5001 30.4 66.7001C29.9 66.9001 29.6 67.3001 29.6 67.7001C29.6 67.9001 29.6 68.1001 29.6 68.3001C29.8 68.9001 31.6 74.0001 35.3 74.9001C35.5 74.9001 35.7 75.0001 35.9 75.0001C36.1 75.0001 36.4 75.0001 36.6 75.0001C37.1 75.0001 37.5 74.9001 37.8 74.8001C38.5 74.6001 39 74.2001 39.4 73.9001C39.5 73.8001 39.6 73.8001 39.6 73.7001C40 73.4001 40.3 73.1001 40.8 72.8001C41.4 72.5001 41.9 72.1001 42.4 71.7001C42.5 71.6001 42.7 71.5001 42.8 71.4001C43.6 70.8001 44.3 70.2001 45 70.0001C46 69.7001 46.2 70.0001 46.3 70.1001C46.8 70.9001 46.4 73.2001 45.5 74.1001C43.5 76.5001 40.8 78.4001 37.8 79.6001ZM42 64.8001C42.2 64.8001 42.4 65.1001 42.6 65.4001C42.9 66.0001 42.8 66.7001 42.3 67.9001C41.9 68.7001 41.4 69.5001 40.8 70.1001C40.5 70.4001 40.1 70.6001 39.8 70.8001C39.2 71.2001 38.7 71.5001 38.3 71.8001C38.2 71.9001 38.1 71.9001 37.9 71.9001V70.4001C37.9 69.7001 37.8 69.1001 37.7 68.5001C38.7 67.8001 39.7 67.0001 40.5 65.8001C40.9 65.2001 41.6 64.8001 42 64.8001Z" fill="url(#paint3_linear)"/>
<path d="M53.6 39.2998H60.7C65.8 39.2998 69.9 35.1998 69.9 29.9998V22.4998C69.9 17.3998 65.8 13.2998 60.7 13.2998H37.2C32.1 13.2998 28 17.3998 28 22.4998V29.9998C28 35.0998 32.1 39.2998 37.2 39.2998H42.6C42.4 41.1998 42 44.3998 41.8 46.0998C41.7 46.4998 41.9 46.7998 42.1 47.0998C42.3 47.3998 42.7 47.4998 43 47.4998C43.1 47.4998 50.6 47.0998 53.6 39.2998ZM44.5 44.7998C44.9 42.0998 45.2 38.3998 45.2 38.1998C45.2 37.7998 45.1 37.4998 44.9 37.1998C44.7 36.8998 44.3 36.7998 44 36.7998H37.2C33.5 36.7998 30.5 33.7998 30.5 29.9998V22.4998C30.5 18.7998 33.5 15.6998 37.2 15.6998H60.7C64.4 15.6998 67.5 18.6998 67.5 22.4998V29.9998C67.5 33.6998 64.5 36.7998 60.7 36.7998H52.7C52.2 36.7998 51.7 37.1998 51.5 37.6998C49.9 42.5998 46.5 44.1998 44.5 44.7998Z" fill="url(#paint4_linear)"/>
<path d="M61.9 30.2C61.9 29.5 61.3 29 60.7 29H37.5C36.8 29 36.3 29.6 36.3 30.2C36.3 30.8 36.9 31.4 37.5 31.4H60.6C61.3 31.4 61.9 30.9 61.9 30.2Z" fill="url(#paint5_linear)"/>
<path d="M37.5 24.4H53.8C54.5 24.4 55 23.8 55 23.2C55 22.5 54.4 22 53.8 22H37.5C36.8 22 36.3 22.6 36.3 23.2C36.2 23.8 36.8 24.4 37.5 24.4Z" fill="url(#paint6_linear)"/>
<defs>
<linearGradient id="paint0_linear" x1="64.7" y1="45.0138" x2="74.192" y2="58.6358" gradientUnits="userSpaceOnUse">
<stop stop-color="#009FFF"/>
<stop offset="0.463" stop-color="#40025F"/>
<stop offset="1" stop-color="#EC2F4B"/>
</linearGradient>
<linearGradient id="paint1_linear" x1="46.6453" y1="52.1154" x2="70.4086" y2="87.7074" gradientUnits="userSpaceOnUse">
<stop stop-color="#009FFF"/>
<stop offset="0.463" stop-color="#40025F"/>
<stop offset="1" stop-color="#EC2F4B"/>
</linearGradient>
<linearGradient id="paint2_linear" x1="21" y1="44.214" x2="30.492" y2="57.836" gradientUnits="userSpaceOnUse">
<stop stop-color="#009FFF"/>
<stop offset="0.463" stop-color="#40025F"/>
<stop offset="1" stop-color="#EC2F4B"/>
</linearGradient>
<linearGradient id="paint3_linear" x1="16.3" y1="60.819" x2="30.275" y2="88.2436" gradientUnits="userSpaceOnUse">
<stop stop-color="#009FFF"/>
<stop offset="0.463" stop-color="#40025F"/>
<stop offset="1" stop-color="#EC2F4B"/>
</linearGradient>
<linearGradient id="paint4_linear" x1="28" y1="15.044" x2="49.2439" y2="52.3953" gradientUnits="userSpaceOnUse">
<stop stop-color="#009FFF"/>
<stop offset="0.463" stop-color="#40025F"/>
<stop offset="1" stop-color="#EC2F4B"/>
</linearGradient>
<linearGradient id="paint5_linear" x1="36.3" y1="29.1224" x2="36.5256" y2="32.5767" gradientUnits="userSpaceOnUse">
<stop stop-color="#009FFF"/>
<stop offset="0.463" stop-color="#40025F"/>
<stop offset="1" stop-color="#EC2F4B"/>
</linearGradient>
<linearGradient id="paint6_linear" x1="36.2891" y1="22.1224" x2="36.5967" y2="25.564" gradientUnits="userSpaceOnUse">
<stop stop-color="#009FFF"/>
<stop offset="0.463" stop-color="#40025F"/>
<stop offset="1" stop-color="#EC2F4B"/>
</linearGradient>
</defs>
</svg>
