<svg width="68" height="73" viewBox="0 0 68 73" fill="none" xmlns="http://www.w3.org/2000/svg">
<path d="M48.7 38.3C48.7 42.2 51.8 45.3 55.7 45.3C59.6 45.3 62.7 42.2 62.7 38.3C62.7 34.4 59.6 31.3 55.7 31.3C51.9 31.3 48.7 34.4 48.7 38.3ZM55.7 42.8C53.2 42.8 51.2 40.8 51.2 38.3C51.2 35.8 53.2 33.8 55.7 33.8C58.2 33.8 60.2 35.8 60.2 38.3C60.2 40.7 58.2 42.8 55.7 42.8Z" fill="#C4C4C4"/>
<path d="M57 47.6C51.5 47.6 46.9 51.8 46.3 57.2C45.8 56.2 45.3 55.2 45 54.5C44.8 54 44.6 53.5 44.4 53.1C43.9 51.9 42.4 50 39.8 50L38.9 47.4H39C39.9 47.1 40.6 46.4 41 45.6C41.4 44.7 41.5 43.8 41.1 42.9L40 39.7C39.5 38.3 38.1 37.3 36.6 37.3C36.2 37.3 35.8 37.4 35.4 37.5L33 38.4C32.1 38.7 31.4 39.4 31 40.2C30.6 41.1 30.5 42 30.9 42.9L32.1 46.1C32.6 47.5 34 48.5 35.5 48.5C35.9 48.5 36.3 48.4 36.7 48.3L37.5 50.6C37 50.9 36.5 51.3 36.2 51.8C35.2 53.4 35.6 55.3 35.7 55.7C36.6 61.8 41 72.9 50.8 72.9C51.1 72.9 51.3 72.9 51.6 72.9C51.8 72.9 55.4 72.5 59.2 70.7C61.2 69.7 63.3 68.3 64.9 66.3C65.1 66.1 65.2 65.8 65.4 65.6V71.7C65.4 72.4 66 72.9 66.6 72.9C67.3 72.9 67.8 72.3 67.8 71.7V58.4C67.8 52.5 62.9 47.6 57 47.6ZM62.8 64.8C60.2 68.1 55.9 69.5 53.3 70.1C52.1 70.4 51.2 70.5 51.2 70.5C50.2 70.6 49.2 70.5 48.3 70.2C47.5 70 46.8 69.7 46.1 69.4C39.7 65.9 38 55.5 38 55.4V55.3C37.9 55 37.8 53.9 38.2 53.2C38.3 53 38.5 52.8 39.1 52.6C41.2 52.2 41.9 53.8 42.1 54.1V54.2C42.3 54.5 42.5 55 42.7 55.5C43.7 57.9 44.8 60.3 46.2 61.9C46.6 62.4 47 62.8 47.4 63.1C47.8 63.4 48.2 63.6 48.6 63.8C48.8 63.9 49 63.9 49.2 64C50.1 64.2 51.4 64 52.8 62.5C54.8 60.3 55.5 56.4 55.5 56.2C55.5 56.1 55.5 56 55.5 56C55.5 55.4 55.1 54.9 54.5 54.8C53.8 54.7 53.2 55.1 53.1 55.8C52.9 56.7 52.3 59.5 51 60.8C50.2 61.6 49.8 61.5 49.6 61.5C49.3 61.4 48.9 61.2 48.6 60.9V58.4C48.6 53.8 52.3 50.1 56.9 50.1C60.5 50.1 63.6 52.5 64.7 55.7C64.7 55.7 64.7 55.7 64.7 55.8V55.9C65.3 59.4 64.7 62.4 62.8 64.8ZM34.4 45.3L33.2 42.1C33.1 41.8 33.1 41.5 33.2 41.3C33.3 41 33.5 40.8 33.8 40.7L36.2 39.8C36.3 39.8 36.4 39.7 36.6 39.7C37.1 39.7 37.5 40 37.6 40.4L38.8 43.6C38.9 43.9 38.9 44.2 38.8 44.4C38.7 44.7 38.5 44.9 38.2 45L35.8 45.9C35.2 46.1 34.6 45.8 34.4 45.3Z" fill="#C4C4C4"/>
<path d="M12 44.5C15.9 44.5 19 41.4 19 37.5C19 33.6 15.9 30.5 12 30.5C8.09999 30.5 4.99999 33.6 4.99999 37.5C4.99999 41.4 8.19999 44.5 12 44.5ZM12 33C14.5 33 16.5 35 16.5 37.5C16.5 40 14.5 42 12 42C9.49999 42 7.49999 40 7.49999 37.5C7.49999 35 9.59999 33 12 33Z" fill="#C4C4C4"/>
<path d="M29 54.6C29.3 53.6 29.4 52.4 28.8 51.2C28 49.6 26.8 49.3 26.1 49.3C24.5 49.2 23.1 50.4 22.4 51.5C22 52.1 21.5 52.6 20.9 53C19.2 49.3 15.4 46.6 11.1 46.6C5.19999 46.6 0.299988 51.4 0.299988 57.4V69.3C0.299988 70 0.899989 70.5 1.49999 70.5C2.19999 70.5 2.69999 69.9 2.69999 69.3V60.6C4.09999 63.5 6.39999 66.2 8.79999 67.8C9.29999 68.1 9.79999 68.4 10.4 68.7C12.2 69.6 14.2 70 16.1 70C17.5 70 18.9 69.8 20.4 69.4H20.5C20.8 69.4 21 69.3 21.2 69.1C25 67.9 28.7 65.6 31.3 62.6C32.8 61 33.6 57.5 32.4 55.6C32.1 55.4 31.1 54.2 29 54.6ZM21.8 66.6C21.4 66.8 21 66.9 20.6 67C20.2 67.1 19.8 67.2 19.4 67.3C16.2 68 13 67.7 10.3 66C6.69999 63.5 3.19999 58 3.99999 54C3.99999 53.8 4.09999 53.6 4.09999 53.4V53.3C4.09999 53.2 4.09999 53.1 4.09999 53C5.59999 50.8 8.09999 49.3 11 49.3C14.5 49.3 17.4 51.4 18.7 54.5C18.9 54.9 19 55.3 19.1 55.7C19.2 56.1 19.3 56.6 19.3 57C19.3 57.2 19.3 57.4 19.3 57.6V59.3C17.6 58.4 16.3 55.6 16 54.5C15.8 53.8 15.1 53.5 14.4 53.7C13.9 53.9 13.6 54.3 13.6 54.7C13.6 54.9 13.6 55.1 13.6 55.3C13.8 55.9 15.6 61 19.3 61.9C19.5 61.9 19.7 62 19.9 62C20.1 62 20.4 62 20.6 62C21.1 62 21.5 61.9 21.8 61.8C22.5 61.6 23 61.2 23.4 60.9C23.5 60.8 23.6 60.8 23.6 60.7C24 60.4 24.3 60.1 24.8 59.8C25.4 59.5 25.9 59.1 26.4 58.7C26.5 58.6 26.7 58.5 26.8 58.4C27.6 57.8 28.3 57.2 29 57C30 56.7 30.2 57 30.3 57.1C30.8 57.9 30.4 60.2 29.5 61.1C27.5 63.5 24.8 65.4 21.8 66.6ZM26 51.8C26.2 51.8 26.4 52.1 26.6 52.4C26.9 53 26.8 53.7 26.3 54.9C25.9 55.7 25.4 56.5 24.8 57.1C24.5 57.4 24.1 57.6 23.8 57.8C23.2 58.2 22.7 58.5 22.3 58.8C22.2 58.9 22.1 58.9 21.9 58.9V57.4C21.9 56.7 21.8 56.1 21.7 55.5C22.7 54.8 23.7 54 24.5 52.8C24.9 52.2 25.6 51.8 26 51.8Z" fill="#C4C4C4"/>
<path d="M37.6 26.2998H44.7C49.8 26.2998 53.9 22.1998 53.9 16.9998V9.4998C53.9 4.3998 49.8 0.299805 44.7 0.299805H21.2C16.1 0.299805 12 4.3998 12 9.4998V16.9998C12 22.0998 16.1 26.2998 21.2 26.2998H26.6C26.4 28.1998 26 31.3998 25.8 33.0998C25.7 33.4998 25.9 33.7998 26.1 34.0998C26.3 34.3998 26.7 34.4998 27 34.4998C27.1 34.4998 34.6 34.0998 37.6 26.2998ZM28.5 31.7998C28.9 29.0998 29.2 25.3998 29.2 25.1998C29.2 24.7998 29.1 24.4998 28.9 24.1998C28.7 23.8998 28.3 23.7998 28 23.7998H21.2C17.5 23.7998 14.5 20.7998 14.5 16.9998V9.4998C14.5 5.7998 17.5 2.6998 21.2 2.6998H44.7C48.4 2.6998 51.5 5.6998 51.5 9.4998V16.9998C51.5 20.6998 48.5 23.7998 44.7 23.7998H36.7C36.2 23.7998 35.7 24.1998 35.5 24.6998C33.9 29.5998 30.5 31.1998 28.5 31.7998Z" fill="#C4C4C4"/>
<path d="M45.9 17.2C45.9 16.5 45.3 16 44.7 16H21.5C20.8 16 20.3 16.6 20.3 17.2C20.3 17.8 20.9 18.4 21.5 18.4H44.6C45.3 18.4 45.9 17.9 45.9 17.2Z" fill="#C4C4C4"/>
<path d="M21.5 11.4H37.8C38.5 11.4 39 10.8 39 10.2C39 9.5 38.4 9 37.8 9H21.5C20.8 9 20.3 9.6 20.3 10.2C20.2 10.8 20.8 11.4 21.5 11.4Z" fill="#C4C4C4"/>
</svg>
