<svg width="24" height="48" viewBox="0 0 24 48" fill="none" xmlns="http://www.w3.org/2000/svg">
<path d="M24 3.31291C24 1.48324 22.5348 0 20.7273 0C18.9198 0 17.4546 1.48324 17.4546 3.31291C17.4546 5.14258 18.9198 6.62583 20.7273 6.62583C22.5348 6.62583 24 5.14259 24 3.31291Z" fill="black"/>
<path d="M4.62837 30.5048L19.3807 26.5034L20.5101 30.7701L5.75776 34.7715L4.62837 30.5048Z" fill="black"/>
<path d="M6.73584 43.6523L19.3807 40.2225L20.5101 44.4892L7.86523 47.919L6.73584 43.6523Z" fill="black"/>
<path fill-rule="evenodd" clip-rule="evenodd" d="M10.9091 26.5033C16.934 26.5033 21.8182 21.5592 21.8182 15.4603C21.8182 9.36136 16.934 4.41722 10.9091 4.41722C4.88418 4.41722 1.79464e-05 9.36136 1.79464e-05 15.4603C1.79464e-05 21.5592 4.88418 26.5033 10.9091 26.5033ZM10.9091 22.0861C14.5241 22.0861 17.4546 19.1196 17.4546 15.4603C17.4546 11.8009 14.5241 8.83444 10.9091 8.83444C7.29415 8.83444 4.36365 11.8009 4.36365 15.4603C4.36365 19.1196 7.29415 22.0861 10.9091 22.0861Z" fill="black"/>
<path d="M21.0747 32.9034L0 38.6197L1.12939 42.8864L22.2041 37.1701L21.0747 32.9034Z" fill="black"/>
</svg>
