<svg viewBox="0 0 151 107" fill="none" xmlns="http://www.w3.org/2000/svg">
<path d="M93.7299 41.3311L72.1589 53.1441L108.624 61.8751L125.058 47.2381L93.7299 41.3311Z" fill="url(#paint0_linear)"/>
<path d="M109.394 61.875L84.228 83.959L126.342 94.231L141.236 69.322L109.394 61.875Z" fill="url(#paint1_linear)"/>
<path d="M100.113 30.216C99.849 26.526 96.265 18.137 94.506 14.403C96.089 7.55098 91.867 3.64098 89.558 2.54298C86.48 -0.422016 68.712 -0.620016 63.171 2.54298C49.707 8.81898 46.438 25.094 50.308 37.793C52.155 43.855 58.334 47.566 61.192 48.664C60.203 52.178 58.817 59.206 61.192 59.206C67.081 59.206 66.948 70.006 67.459 73.706C73.726 74.365 86.259 74.892 86.259 71.729C86.259 68.566 82.081 67.995 79.992 68.105C82.042 65.18 82.301 62.636 82.301 59.21H86.26V48.664C93.106 44.39 100.743 39.031 100.113 30.216Z" fill="url(#paint2_linear)"/>
<path d="M126.856 59.05V95.258L150.995 55.248V33.114L126.856 59.05Z" fill="url(#paint3_linear)"/>
<path d="M126.856 94.7451L119.666 92.4331V56.7391L147.4 32.6001L151 33.1141L126.856 59.0501V94.7451Z" fill="url(#paint4_linear)"/>
<path d="M126.787 59.033L119.597 56.979" stroke="white" stroke-width="0.5"/>
<path d="M126.856 59.0501L150.738 33.3711" stroke="white" stroke-width="0.5"/>
<path d="M127.106 58.793V94.744" stroke="white" stroke-width="0.5"/>
<path d="M57.7859 11.269C62.7169 4.49002 75.4969 2.46903 81.1459 3.84003C84.3129 5.72303 90.1849 7.07603 81.1459 5.64003C72.1069 4.20403 63.5209 12.9 61.3819 14.864C59.6699 18.374 56.3489 26.677 56.7599 31.812C57.1709 36.947 65.3199 39.944 69.3429 40.8C67.5429 45.337 64.5149 54.41 66.7749 54.41C69.0349 54.41 71.4829 58.519 72.4239 60.573C72.4239 64.339 71.8079 71.873 69.3419 71.873C70.3689 60.78 64.4629 57.15 61.3809 56.722L63.9499 42.854C63.3499 43.796 53.6699 40.047 52.3859 33.884C51.1019 27.721 52.8559 18.048 57.7859 11.269Z" fill="white" fill-opacity="0.09"/>
<path d="M33.383 71.6328L0 88.8378L58.549 106.038L83.458 84.2158L33.383 71.6328Z" fill="url(#paint5_linear)"/>
<defs>
<linearGradient id="paint0_linear" x1="125.058" y1="41.3311" x2="117.229" y2="65.7783" gradientUnits="userSpaceOnUse">
<stop stop-color="#009FFF"/>
<stop offset="0.138" stop-color="#152ACA"/>
<stop offset="0.419" stop-color="#40025F"/>
<stop offset="1" stop-color="#EC2F4B"/>
</linearGradient>
<linearGradient id="paint1_linear" x1="141.236" y1="61.875" x2="124.938" y2="96.6994" gradientUnits="userSpaceOnUse">
<stop stop-color="#009FFF"/>
<stop offset="0.138" stop-color="#152ACA"/>
<stop offset="0.419" stop-color="#40025F"/>
<stop offset="1" stop-color="#EC2F4B"/>
</linearGradient>
<linearGradient id="paint2_linear" x1="100.149" y1="0.244385" x2="52.3372" y2="40.5082" gradientUnits="userSpaceOnUse">
<stop stop-color="#009FFF"/>
<stop offset="0.138" stop-color="#152ACA"/>
<stop offset="0.419" stop-color="#40025F"/>
<stop offset="1" stop-color="#EC2F4B"/>
</linearGradient>
<linearGradient id="paint3_linear" x1="150.995" y1="33.114" x2="119.562" y2="47.9213" gradientUnits="userSpaceOnUse">
<stop stop-color="#009FFF"/>
<stop offset="0.138" stop-color="#152ACA"/>
<stop offset="0.419" stop-color="#40025F"/>
<stop offset="1" stop-color="#EC2F4B"/>
</linearGradient>
<linearGradient id="paint4_linear" x1="151" y1="32.6001" x2="114.711" y2="54.7896" gradientUnits="userSpaceOnUse">
<stop stop-color="#009FFF"/>
<stop offset="0.138" stop-color="#152ACA"/>
<stop offset="0.419" stop-color="#40025F"/>
<stop offset="1" stop-color="#EC2F4B"/>
</linearGradient>
<linearGradient id="paint5_linear" x1="83.458" y1="71.6328" x2="69.7029" y2="112.098" gradientUnits="userSpaceOnUse">
<stop stop-color="#009FFF"/>
<stop offset="0.138" stop-color="#152ACA"/>
<stop offset="0.419" stop-color="#40025F"/>
<stop offset="1" stop-color="#EC2F4B"/>
</linearGradient>
</defs>
</svg>
