<svg xmlns="http://www.w3.org/2000/svg" width="300.314" height="188.016" viewBox="0 0 300.314 188.016">
    <defs>
        <style>
            .cls-1{fill-rule:evenodd}
        </style>
    </defs>
    <g id="noun_usa_dotted_map_2192880" data-name="noun_usa dotted map_2192880" transform="translate(-4.113 -9765.794)">
        <g id="Groupe_51" data-name="Groupe 51" transform="translate(4.113 9765.794)">
            <path id="Tracé_110" d="M691.113 9886.8a.8.8 0 1 0 0 1.129.8.8 0 0 0 0-1.129zm5.123 5.9a.247.247 0 1 0 0 .35.248.248 0 0 0-.001-.35zm-11.049-11a.211.211 0 1 0 0 .3.212.212 0 0 0-.001-.3zm-5.408-5.615a.358.358 0 1 0 0 .506.358.358 0 0 0-.001-.502zm-11.27-10.777a.009.009 0 0 0-.013 0 .009.009 0 0 0 0 .013.009.009 0 0 0 .013 0 .009.009 0 0 0-.001-.009zm44.8 32.364a1.009 1.009 0 1 0 0 1.427 1.008 1.008 0 0 0 0-1.423zM668.793 9854a.412.412 0 1 0 0 .583.413.413 0 0 0 0-.583zm93.434 71.919a.036.036 0 0 0-.052 0 .037.037 0 1 0 .052 0zm-16.451-16.62a.156.156 0 1 0 0 .221.156.156 0 0 0 0-.22zm55.021 44.191a.018.018 0 1 0 0 .026.019.019 0 0 0 0-.026zm-5.5-5.524a.036.036 0 0 0-.052 0 .037.037 0 1 0 .052 0zm-16.548-16.522a.019.019 0 1 0 0 .026.019.019 0 0 0 .001-.024zm-4.332-6.691a1.687 1.687 0 1 0 0 2.386 1.687 1.687 0 0 0 .001-2.384zm-11.432-10.615a1.11 1.11 0 1 0 0 1.569 1.109 1.109 0 0 0 .001-1.567zm49.035 39.153a.3.3 0 1 0 0 .428.3.3 0 0 0 .002-.426zm-15.472-17.6a1.807 1.807 0 1 0 0 2.556 1.807 1.807 0 0 0 .002-2.554zm-6.186-4.837a.853.853 0 1 0 0 1.206.853.853 0 0 0 .002-1.204zm-5.881-5.143a.33.33 0 1 0 0 .467.33.33 0 0 0 .001-.464zM669.1 9809.6a.853.853 0 1 0 0 1.206.853.853 0 0 0 0-1.206zm-.577-10.447a.037.037 0 1 0 0 .053.038.038 0 0 0 .004-.056zm5.68-5.68a.275.275 0 1 0 0 .389.275.275 0 0 0 .005-.391zm155.322 131.29a1.678 1.678 0 1 0 0 2.374 1.678 1.678 0 0 0 .005-2.376zM679.9 9776.754a.532.532 0 1 0 0 .752.531.531 0 0 0 0-.752zM840 9925.313a.9.9 0 1 0 0 1.271.9.9 0 0 0 0-1.271zm-160.41-159.272a.093.093 0 0 0-.13 0 .092.092 0 1 0 .13 0zm176.455 165.275a.2.2 0 1 0 0 .286.2.2 0 0 0-.001-.286zm10.887.137a.009.009 0 0 0-.013 0 .009.009 0 0 0 0 .013.009.009 0 0 0 .013-.013zm-165.185-165.522a.248.248 0 1 0 0 .351.248.248 0 0 0 0-.351zM878.1 9920.287a.211.211 0 1 0 0 .3.21.21 0 0 0 0-.3zm-142.3-144.311a1.632 1.632 0 1 0 0 2.309 1.632 1.632 0 0 0 0-2.309zm186.376 177.4a.184.184 0 1 0 0 .26.184.184 0 0 0-.003-.259zm-16.483-16.587a.256.256 0 1 0 0 .362.256.256 0 0 0-.004-.361zM740.174 9771.6a.027.027 0 0 0-.039 0 .028.028 0 0 0 0 .039.028.028 0 1 0 .039-.039zm160.782 147.878a1.357 1.357 0 1 0 0 1.919 1.357 1.357 0 0 0 0-1.92zm26.722 17.371a.174.174 0 1 0 0 .247.176.176 0 0 0 0-.247zm-4.948-6.075a.972.972 0 1 0 0 1.374.972.972 0 0 0 0-1.376zM767.739 9777.1a.038.038 0 0 0-.052 0 .037.037 0 0 0 0 .052.036.036 0 0 0 .052 0 .037.037 0 0 0 0-.052zm144.1 131.485a1.165 1.165 0 1 0 0 1.647 1.164 1.164 0 0 0 .004-1.643zm4.714-4.714a.036.036 0 0 0-.052 0 .037.037 0 0 0 0 .052.038.038 0 0 0 .052 0 .037.037 0 0 0 .004-.048zm-120.63-121.889a.926.926 0 1 0 0 1.311.927.927 0 0 0 .004-1.307zm71.53 49.729a.752.752 0 1 0 0 1.063.751.751 0 0 0 .004-1.058zm-4.714-6.31a1.88 1.88 0 1 0 0 2.659 1.88 1.88 0 0 0 .004-2.654zm4.332-4.331a.211.211 0 1 0 0 .3.21.21 0 0 0 .003-.295zM835.009 9787a1.632 1.632 0 1 0 0 2.309 1.632 1.632 0 0 0 0-2.309zm-6.51-4.513a.22.22 0 1 0 0 .311.22.22 0 0 0 .001-.312zm105.586 92.837a1.44 1.44 0 1 0 0 2.036 1.441 1.441 0 0 0 0-2.037zm-60.318-60.94a1.88 1.88 0 1 0 0 2.658 1.88 1.88 0 0 0-.001-2.659zm-6.575-4.448a.376.376 0 1 0 0 .532.377.377 0 0 0-.001-.533zm-16.658-16.412a.2.2 0 1 0 0 .285.2.2 0 0 0-.001-.287zm22.449 10.621a.77.77 0 1 0 0 1.09.77.77 0 0 0-.001-1.091zm-5.343-5.68a1.009 1.009 0 1 0 0 1.427 1.008 1.008 0 0 0-.001-1.428zm-6.063-4.961a.229.229 0 1 0 0 .324.229.229 0 0 0-.001-.328zm82.521 71.809a.009.009 0 0 0-.013 0 .009.009 0 0 0 0 .013.009.009 0 0 0 .013 0 .009.009 0 0 0 .002-.014zm-5.337-5.687a.257.257 0 1 0 0 .363.256.256 0 0 0-.001-.364zm-9.792-12.256a2 2 0 1 0 0 2.827 2 2 0 0 0-.001-2.828zm-22.495-21.6a1.366 1.366 0 1 0 0 1.933 1.367 1.367 0 0 0 0-1.933zm-17.391-15.68a.156.156 0 1 0 0 .221.157.157 0 0 0 0-.221zm-5.1-5.92a.733.733 0 1 0 0 1.037.734.734 0 0 0-.004-1.037zm-5.181-5.843a1.2 1.2 0 1 0 0 1.7 1.2 1.2 0 0 0-.002-1.7zm-6.355-4.669a.011.011 0 0 0-.013 0 .01.01 0 0 0 0 .014.011.011 0 0 0 .013 0 .01.01 0 0 0-.003-.014zm66.68 54.58a.77.77 0 1 0 0 1.089.77.77 0 0 0 0-1.089zm-33.6-32.546a.028.028 0 1 0 0 .039.028.028 0 0 0 0-.039zm38.576 27.565a.019.019 0 0 0-.026.026.019.019 0 0 0 .026 0 .019.019 0 0 0-.003-.025zm.032-11.056a.064.064 0 0 0-.091 0 .064.064 0 1 0 .091 0zm-21.574-22.521a.733.733 0 1 0 0 1.037.734.734 0 0 0 .001-1.035zm27.053 17.041a.018.018 0 1 0 0 .026.019.019 0 0 0 .001-.024zm-27.552-27.565a.028.028 0 1 0 0 .039.028.028 0 0 0 .001-.038zm33.505 21.613a.642.642 0 1 0 0 .907.641.641 0 0 0 .001-.905zm-4.383-6.641a2.237 2.237 0 1 0 0 3.164 2.237 2.237 0 0 0 0-3.164zm9.545 1.479a.147.147 0 1 0 0 .207.146.146 0 0 0 0-.206zm-.091-10.933a.017.017 0 0 0-.026 0 .018.018 0 0 0 0 .025.017.017 0 0 0 .026 0 .018.018 0 0 0 0-.023zm5.544-5.545a.065.065 0 1 0 0 .092.065.065 0 0 0 .001-.09zm-15.725-17.346a1.211 1.211 0 1 0 0 1.712 1.21 1.21 0 0 0 .001-1.71zm16.185 5.862a.715.715 0 1 0 0 1.012.715.715 0 0 0 0-1.012zm-10.479-11.568a1.485 1.485 0 1 0 0 2.1 1.486 1.486 0 0 0 .001-2.098zm-6.556-4.468a.009.009 0 0 0-.013 0 .009.009 0 0 0 0 .013.009.009 0 0 0 .013 0 .009.009 0 0 0 .001-.011zm11.03-.007a.018.018 0 1 0 0 .026.019.019 0 0 0 .001-.028zm-286.126 98.727a.706.706 0 1 0 0 1 .7.7 0 0 0 .001-.998zm43.854 33.311a.367.367 0 1 0 0 .519.366.366 0 0 0 .002-.517zm-10.161-11.887a1.587 1.587 0 1 0 0 2.244 1.587 1.587 0 0 0 .002-2.242zm-5.006-6.018a2.3 2.3 0 1 0 0 3.256 2.3 2.3 0 0 0 .002-3.254zm-5.486-5.537a2.338 2.338 0 1 0 0 3.307 2.339 2.339 0 0 0 .002-3.305zm-5.512-5.512a2.338 2.338 0 1 0 0 3.307 2.339 2.339 0 0 0 0-3.305zm-5.525-5.5a2.32 2.32 0 1 0 0 3.281 2.32 2.32 0 0 0 .002-3.278zm-5.5-5.524a2.338 2.338 0 1 0 0 3.307 2.337 2.337 0 0 0 .003-3.304zm-5.823-5.2a1.9 1.9 0 1 0 0 2.685 1.9 1.9 0 0 0 .003-2.683zm59.339 50.9a.074.074 0 0 0-.1 0 .073.073 0 0 0 0 .1.072.072 0 0 0 .1 0 .073.073 0 0 0 .003-.102zm-4.254-6.77a1.853 1.853 0 1 0 0 2.62 1.852 1.852 0 0 0 .004-2.621zm-5.181-5.843a2.32 2.32 0 1 0 0 3.281 2.32 2.32 0 0 0 .004-3.282zm-5.5-5.524a2.338 2.338 0 1 0 0 3.307 2.339 2.339 0 0 0 .005-3.308zm-5.512-5.512a2.338 2.338 0 1 0 0 3.307 2.339 2.339 0 0 0 .005-3.308zm-5.512-5.512a2.338 2.338 0 1 0 0 3.307 2.339 2.339 0 0 0 .005-3.308zm-5.512-5.512a2.338 2.338 0 1 0 0 3.307 2.339 2.339 0 0 0 .006-3.308zm-5.512-5.512a2.338 2.338 0 1 0 0 3.307 2.339 2.339 0 0 0 .006-3.307zm-5.512-5.512a2.338 2.338 0 1 0 0 3.307 2.337 2.337 0 0 0 .004-3.307zm-5.512-5.513a2.339 2.339 0 1 0 0 3.308 2.338 2.338 0 0 0 .006-3.308zm-5.512-5.512a2.339 2.339 0 1 0 0 3.308 2.339 2.339 0 0 0 .006-3.307zm-5.59-5.434a2.228 2.228 0 1 0 0 3.151 2.229 2.229 0 0 0 .007-3.15zm-6.394-4.63a.981.981 0 1 0 0 1.388.982.982 0 0 0 .012-1.387zm72.613 59.67a2.339 2.339 0 1 0 0 3.307 2.339 2.339 0 0 0 .007-3.306zm-5.512-5.512a2.338 2.338 0 1 0 0 3.307 2.339 2.339 0 0 0 .011-3.306zm-5.512-5.512a2.338 2.338 0 1 0 0 3.307 2.339 2.339 0 0 0 .007-3.305zm-5.512-5.512a2.338 2.338 0 1 0 0 3.307 2.339 2.339 0 0 0 .008-3.305zm-5.512-5.512a2.338 2.338 0 1 0 0 3.307 2.339 2.339 0 0 0 .008-3.305zm-5.512-5.512a2.338 2.338 0 1 0 0 3.307 2.339 2.339 0 0 0 .008-3.305zm-5.512-5.512a2.338 2.338 0 1 0 0 3.307 2.339 2.339 0 0 0 .008-3.304zm-5.512-5.512a2.338 2.338 0 1 0 0 3.307 2.337 2.337 0 0 0 .008-3.304zm-5.512-5.512a2.338 2.338 0 1 0 0 3.307 2.338 2.338 0 0 0 .009-3.304zm-5.512-5.513a2.339 2.339 0 1 0 0 3.308 2.339 2.339 0 0 0 .007-3.304zm-5.512-5.512a2.339 2.339 0 1 0 0 3.308 2.339 2.339 0 0 0 .009-3.304zm-5.512-5.512a2.339 2.339 0 1 0 0 3.308 2.339 2.339 0 0 0 .009-3.304zm-5.512-5.512a2.339 2.339 0 1 0 0 3.308 2.339 2.339 0 0 0 .01-3.304zm-5.778-5.246a1.962 1.962 0 1 0 0 2.775 1.964 1.964 0 0 0 .01-2.771zm99.3 88.1a2.091 2.091 0 1 0 0 2.957 2.091 2.091 0 0 0 .013-2.955zm-11.905-10.142a.844.844 0 1 0 0 1.193.844.844 0 0 0 .012-1.191zm-4.812-6.212a1.834 1.834 0 1 0 0 2.594 1.835 1.835 0 0 0 .013-2.595zm-5.155-5.868a2.338 2.338 0 1 0 0 3.307 2.339 2.339 0 0 0 .013-3.305zm-5.512-5.512a2.338 2.338 0 1 0 0 3.307 2.339 2.339 0 0 0 .013-3.304zm-5.512-5.512a2.338 2.338 0 1 0 0 3.307 2.339 2.339 0 0 0 .017-3.304zm-5.512-5.512a2.338 2.338 0 1 0 0 3.307 2.339 2.339 0 0 0 .013-3.304zm-5.512-5.512a2.338 2.338 0 1 0 0 3.307 2.339 2.339 0 0 0 .014-3.304zm-5.512-5.512a2.338 2.338 0 1 0 0 3.307 2.339 2.339 0 0 0 .014-3.303zm-5.512-5.512a2.338 2.338 0 1 0 0 3.307 2.337 2.337 0 0 0 .014-3.303zm-5.512-5.512a2.338 2.338 0 1 0 0 3.307 2.337 2.337 0 0 0 .014-3.303zm-5.512-5.512a2.338 2.338 0 1 0 0 3.307 2.338 2.338 0 0 0 .014-3.302zm-5.512-5.513a2.339 2.339 0 1 0 0 3.308 2.339 2.339 0 0 0 .015-3.303zm-5.512-5.512a2.339 2.339 0 1 0 0 3.308 2.339 2.339 0 0 0 .013-3.303zm-5.512-5.512a2.339 2.339 0 1 0 0 3.308 2.339 2.339 0 0 0 .015-3.303zm-5.512-5.512a2.339 2.339 0 1 0 0 3.308 2.339 2.339 0 0 0 .015-3.302zm-5.512-5.512a2.339 2.339 0 1 0 0 3.308 2.339 2.339 0 0 0 .016-3.302zm-5.933-5.09a1.742 1.742 0 1 0 0 2.464 1.742 1.742 0 0 0 .015-2.458zM807.91 9946.38a2.283 2.283 0 1 0 0 3.229 2.284 2.284 0 0 0 0-3.229zm-5.486-5.537a2.32 2.32 0 1 0 0 3.281 2.32 2.32 0 0 0 0-3.281zm-22.118-21.976a2.219 2.219 0 1 0 0 3.138 2.218 2.218 0 0 0 0-3.138zm-5.427-5.6a2.339 2.339 0 1 0 0 3.308 2.339 2.339 0 0 0 0-3.304zm-5.512-5.512a2.339 2.339 0 1 0 0 3.308 2.339 2.339 0 0 0 0-3.304zm-5.512-5.512a2.339 2.339 0 1 0 0 3.307 2.339 2.339 0 0 0 0-3.303zm-5.512-5.512a2.338 2.338 0 1 0 0 3.307 2.339 2.339 0 0 0 0-3.303zm-5.512-5.512a2.338 2.338 0 1 0 0 3.307 2.339 2.339 0 0 0 0-3.302zm-5.512-5.512a2.338 2.338 0 1 0 0 3.307 2.339 2.339 0 0 0 .001-3.302zm-5.512-5.512a2.338 2.338 0 1 0 0 3.307 2.339 2.339 0 0 0 .001-3.302zm-5.512-5.512a2.338 2.338 0 1 0 0 3.307 2.339 2.339 0 0 0 .005-3.302zm-5.512-5.512a2.338 2.338 0 1 0 0 3.307 2.339 2.339 0 0 0 .001-3.301zm-5.512-5.512a2.338 2.338 0 1 0 0 3.307 2.339 2.339 0 0 0 .002-3.301zm-5.512-5.512a2.338 2.338 0 1 0 0 3.307 2.337 2.337 0 0 0 .002-3.301zm-5.512-5.512a2.338 2.338 0 1 0 0 3.307 2.338 2.338 0 0 0 .002-3.3zm-5.512-5.512a2.338 2.338 0 1 0 0 3.307 2.338 2.338 0 0 0 .002-3.3zm-5.512-5.513a2.339 2.339 0 1 0 0 3.308 2.339 2.339 0 0 0 .002-3.301zm-5.512-5.512a2.339 2.339 0 1 0 0 3.308 2.339 2.339 0 0 0 .003-3.301zm-5.512-5.512a2.339 2.339 0 1 0 0 3.308 2.339 2.339 0 0 0 .001-3.3zm-5.512-5.512a2.339 2.339 0 1 0 0 3.308 2.339 2.339 0 0 0 .003-3.3zm-5.512-5.512a2.339 2.339 0 1 0 0 3.308 2.339 2.339 0 0 0 .003-3.3zm-5.538-5.485a2.3 2.3 0 1 0 0 3.255 2.3 2.3 0 0 0 .004-3.247zm136.614 127.95a.633.633 0 1 0 0 .9.633.633 0 0 0 .004-.892zm-4.306-6.718a2.339 2.339 0 1 0 0 3.308 2.339 2.339 0 0 0 .004-3.3zm-5.512-5.512a2.339 2.339 0 1 0 0 3.308 2.339 2.339 0 0 0 .005-3.299zm-5.512-5.512a2.339 2.339 0 1 0 0 3.308 2.339 2.339 0 0 0 .005-3.299zm-5.512-5.512a2.339 2.339 0 1 0 0 3.308 2.339 2.339 0 0 0 .005-3.299zm-5.512-5.512a2.339 2.339 0 1 0 0 3.308 2.339 2.339 0 0 0 .003-3.298zm-5.512-5.512a2.339 2.339 0 1 0 0 3.308 2.339 2.339 0 0 0 .005-3.298zm-5.512-5.512a2.339 2.339 0 1 0 0 3.307 2.339 2.339 0 0 0 .006-3.297zm-5.512-5.512a2.339 2.339 0 1 0 0 3.307 2.339 2.339 0 0 0 .006-3.297zm-5.512-5.512a2.338 2.338 0 1 0 0 3.307 2.339 2.339 0 0 0 .006-3.296zm-5.512-5.512a2.338 2.338 0 1 0 0 3.307 2.339 2.339 0 0 0 .006-3.296zm-5.512-5.512a2.338 2.338 0 1 0 0 3.307 2.339 2.339 0 0 0 .006-3.296zm-5.512-5.512a2.338 2.338 0 1 0 0 3.307 2.339 2.339 0 0 0 .007-3.296zm-5.512-5.512a2.338 2.338 0 1 0 0 3.307 2.339 2.339 0 0 0 .007-3.295zm-5.512-5.512a2.338 2.338 0 1 0 0 3.307 2.339 2.339 0 0 0 .011-3.295zm-5.512-5.512a2.338 2.338 0 1 0 0 3.307 2.337 2.337 0 0 0 .007-3.295zm-5.512-5.512a2.338 2.338 0 1 0 0 3.307 2.338 2.338 0 0 0 .008-3.294zm-5.512-5.512a2.338 2.338 0 1 0 0 3.307 2.338 2.338 0 0 0 .008-3.294zm-5.512-5.513a2.339 2.339 0 1 0 0 3.308 2.339 2.339 0 0 0 .008-3.295zm-5.512-5.512a2.339 2.339 0 1 0 0 3.308 2.339 2.339 0 0 0 .008-3.295zm-5.512-5.512a2.339 2.339 0 1 0 0 3.308 2.339 2.339 0 0 0 0-3.308zm-5.512-5.512a2.339 2.339 0 1 0 0 3.308 2.339 2.339 0 0 0 .009-3.294zm-5.512-5.512a2.339 2.339 0 1 0 0 3.308 2.339 2.339 0 0 0 .007-3.294zm-5.512-5.512a2.339 2.339 0 1 0 0 3.308 2.339 2.339 0 0 0 .009-3.293zm-5.512-5.512a2.338 2.338 0 1 0 0 3.307 2.339 2.339 0 0 0 .009-3.292zm-5.661-5.362a2.128 2.128 0 1 0 0 3.009 2.127 2.127 0 0 0 .009-2.994zm142 133.586a.284.284 0 1 0 0 .4.284.284 0 0 0 .012-.385zm-4.059-6.965a2.339 2.339 0 1 0 0 3.308 2.339 2.339 0 0 0 .012-3.293zm-5.512-5.512a2.339 2.339 0 1 0 0 3.308 2.339 2.339 0 0 0 .012-3.293zm-5.512-5.512a2.339 2.339 0 1 0 0 3.308 2.339 2.339 0 0 0 .013-3.293zm-5.512-5.512a2.339 2.339 0 1 0 0 3.308 2.339 2.339 0 0 0 .013-3.292zm-5.512-5.512a2.339 2.339 0 1 0 0 3.308 2.339 2.339 0 0 0 .013-3.292zm-5.512-5.512a2.339 2.339 0 1 0 0 3.308 2.339 2.339 0 0 0 .011-3.292zm-5.512-5.512a2.339 2.339 0 1 0 0 3.307 2.339 2.339 0 0 0 .013-3.291zm-5.512-5.512a2.338 2.338 0 1 0 0 3.307 2.339 2.339 0 0 0 .014-3.29zm-5.512-5.512a2.338 2.338 0 1 0 0 3.307 2.339 2.339 0 0 0 .014-3.29zm-5.512-5.512a2.338 2.338 0 1 0 0 3.307 2.339 2.339 0 0 0 .014-3.29zm-5.512-5.512a2.338 2.338 0 1 0 0 3.307 2.339 2.339 0 0 0 .014-3.29zm-5.512-5.512a2.338 2.338 0 1 0 0 3.307 2.339 2.339 0 0 0 .014-3.289zm-5.512-5.512a2.338 2.338 0 1 0 0 3.307 2.339 2.339 0 0 0 .015-3.289zm-5.512-5.512a2.338 2.338 0 1 0 0 3.307 2.338 2.338 0 0 0 .015-3.289zm-5.512-5.512a2.338 2.338 0 1 0 0 3.307 2.337 2.337 0 0 0 .019-3.288zm-5.512-5.512a2.338 2.338 0 1 0 0 3.307 2.338 2.338 0 0 0 .015-3.288zm-5.512-5.513a2.339 2.339 0 1 0 0 3.308 2.339 2.339 0 0 0 .016-3.289zm-5.512-5.512a2.339 2.339 0 1 0 0 3.308 2.339 2.339 0 0 0 .016-3.289zm-5.512-5.512a2.339 2.339 0 1 0 0 3.308 2.339 2.339 0 0 0 .016-3.288zm-5.512-5.512a2.339 2.339 0 1 0 0 3.308 2.339 2.339 0 0 0 .016-3.288zm-5.512-5.512a2.339 2.339 0 1 0 0 3.308 2.339 2.339 0 0 0 .017-3.288zm-5.512-5.512a2.339 2.339 0 1 0 0 3.308 2.339 2.339 0 0 0 .017-3.287zm-5.512-5.512a2.338 2.338 0 1 0 0 3.307 2.339 2.339 0 0 0 .015-3.286zm-5.512-5.512a2.338 2.338 0 1 0 0 3.307 2.339 2.339 0 0 0 .017-3.286zm-5.512-5.512a2.338 2.338 0 1 0 0 3.307 2.339 2.339 0 0 0 .017-3.286zM823.6 9930.694a1.082 1.082 0 1 0 0 1.53 1.082 1.082 0 0 0 0-1.53zm-4.623-6.4a2.339 2.339 0 1 0 0 3.308 2.339 2.339 0 0 0-.004-3.308zm-5.512-5.512a2.339 2.339 0 1 0 0 3.308 2.339 2.339 0 0 0-.004-3.308zm-5.512-5.512a2.339 2.339 0 1 0 0 3.308 2.339 2.339 0 0 0-.004-3.307zm-5.512-5.512a2.339 2.339 0 1 0 0 3.308 2.339 2.339 0 0 0-.003-3.307zm-5.512-5.512a2.339 2.339 0 1 0 0 3.308 2.339 2.339 0 0 0-.003-3.307zm-5.512-5.512a2.339 2.339 0 1 0 0 3.307 2.339 2.339 0 0 0-.003-3.306zm-5.512-5.512a2.338 2.338 0 1 0 0 3.307 2.339 2.339 0 0 0-.005-3.305zm-5.512-5.512a2.338 2.338 0 1 0 0 3.307 2.339 2.339 0 0 0-.003-3.305zm-5.512-5.512a2.338 2.338 0 1 0 0 3.307 2.339 2.339 0 0 0-.002-3.305zm-5.512-5.512a2.338 2.338 0 1 0 0 3.307 2.339 2.339 0 0 0-.002-3.305zm-5.512-5.512a2.338 2.338 0 1 0 0 3.307 2.339 2.339 0 0 0-.002-3.304zm-5.512-5.512a2.338 2.338 0 1 0 0 3.307 2.339 2.339 0 0 0-.002-3.304zm-5.512-5.512a2.338 2.338 0 1 0 0 3.307 2.338 2.338 0 0 0-.001-3.304zm-5.512-5.512a2.338 2.338 0 1 0 0 3.307 2.337 2.337 0 0 0-.001-3.303zm-5.512-5.512a2.338 2.338 0 1 0 0 3.307 2.337 2.337 0 0 0-.001-3.303zm-5.512-5.513a2.339 2.339 0 1 0 0 3.308 2.339 2.339 0 0 0 .003-3.304zm-5.512-5.512a2.339 2.339 0 1 0 0 3.308 2.339 2.339 0 0 0-.001-3.304zm-5.512-5.512a2.339 2.339 0 1 0 0 3.308 2.339 2.339 0 0 0 0-3.303zm-5.512-5.512a2.339 2.339 0 1 0 0 3.308 2.339 2.339 0 0 0 0-3.303zm-5.512-5.512a2.339 2.339 0 1 0 0 3.308 2.339 2.339 0 0 0 0-3.303zm-5.512-5.512a2.339 2.339 0 1 0 0 3.308 2.339 2.339 0 0 0 0-3.308zm-5.512-5.512a2.339 2.339 0 1 0 0 3.308 2.339 2.339 0 0 0 .001-3.302zm-5.512-5.512a2.338 2.338 0 1 0 0 3.307 2.339 2.339 0 0 0 .001-3.301zm-5.512-5.512a2.338 2.338 0 1 0 0 3.307 2.339 2.339 0 0 0-.001-3.301zm-5.512-5.512a2.338 2.338 0 1 0 0 3.307 2.339 2.339 0 0 0 .001-3.3zm-6.044-4.98a1.587 1.587 0 1 0 0 2.244 1.587 1.587 0 0 0 .002-2.238zm143.838 131.751a2.339 2.339 0 1 0 0 3.308 2.339 2.339 0 0 0 .002-3.302zm-5.512-5.512a2.339 2.339 0 1 0 0 3.308 2.339 2.339 0 0 0 .002-3.301zm-5.512-5.512a2.339 2.339 0 1 0 0 3.308 2.339 2.339 0 0 0 .002-3.301zm-5.512-5.512a2.339 2.339 0 1 0 0 3.308 2.339 2.339 0 0 0 .002-3.301zm-5.512-5.512a2.339 2.339 0 1 0 0 3.308 2.339 2.339 0 0 0 .003-3.301zm-5.512-5.512a2.338 2.338 0 1 0 0 3.307 2.339 2.339 0 0 0 .003-3.299zm-5.512-5.512a2.338 2.338 0 1 0 0 3.307 2.339 2.339 0 0 0 .003-3.299zm-5.511-5.504a2.338 2.338 0 1 0 0 3.307 2.339 2.339 0 0 0 0-3.307zm-5.512-5.512a2.338 2.338 0 1 0 0 3.307 2.339 2.339 0 0 0 .002-3.307zm-5.512-5.512a2.338 2.338 0 1 0 0 3.307 2.339 2.339 0 0 0 .003-3.306zm-5.512-5.512a2.338 2.338 0 1 0 0 3.307 2.339 2.339 0 0 0 .003-3.306zm-5.512-5.512a2.338 2.338 0 1 0 0 3.307 2.339 2.339 0 0 0 .003-3.306zm-5.512-5.512a2.338 2.338 0 1 0 0 3.307 2.338 2.338 0 0 0 .003-3.305zm-5.512-5.512a2.338 2.338 0 1 0 0 3.307 2.337 2.337 0 0 0 .004-3.305zm-5.512-5.513a2.339 2.339 0 1 0 0 3.308 2.339 2.339 0 0 0 .004-3.306zm-5.512-5.512a2.339 2.339 0 1 0 0 3.308 2.339 2.339 0 0 0 .004-3.306zm-5.512-5.512a2.339 2.339 0 1 0 0 3.308 2.339 2.339 0 0 0 .008-3.305zm-5.512-5.512a2.339 2.339 0 1 0 0 3.308 2.339 2.339 0 0 0 .004-3.305zm-5.512-5.512a2.339 2.339 0 1 0 0 3.308 2.339 2.339 0 0 0 .005-3.305zm-5.512-5.512a2.339 2.339 0 1 0 0 3.308 2.339 2.339 0 0 0 .005-3.304zm-5.512-5.512a2.339 2.339 0 1 0 0 3.308 2.339 2.339 0 0 0 .005-3.304zm-5.512-5.512a2.339 2.339 0 1 0 0 3.308 2.339 2.339 0 0 0 .005-3.304zm-5.512-5.512a2.338 2.338 0 1 0 0 3.307 2.339 2.339 0 0 0 .006-3.303zm-5.512-5.512a2.338 2.338 0 1 0 0 3.307 2.339 2.339 0 0 0 0-3.307zm-5.508-5.507a2.338 2.338 0 1 0 0 3.307 2.339 2.339 0 0 0 0-3.307zm-5.512-5.512a2.338 2.338 0 1 0 0 3.307 2.339 2.339 0 0 0 .002-3.307zm148.818 137.794a2.339 2.339 0 1 0 0 3.308 2.339 2.339 0 0 0 .002-3.308zm-5.506-5.511a2.339 2.339 0 1 0 0 3.308 2.339 2.339 0 0 0 0-3.308zm-5.512-5.512a2.339 2.339 0 1 0 0 3.308 2.339 2.339 0 0 0-.003-3.308zm-5.512-5.512a2.339 2.339 0 1 0 0 3.308 2.339 2.339 0 0 0-.003-3.308zm-5.512-5.512a2.339 2.339 0 1 0 0 3.308 2.339 2.339 0 0 0-.003-3.308zm-5.512-5.512a2.339 2.339 0 1 0 0 3.308 2.339 2.339 0 0 0-.003-3.307zm-5.512-5.512a2.338 2.338 0 1 0 0 3.307 2.339 2.339 0 0 0-.002-3.306zm-5.512-5.512a2.338 2.338 0 1 0 0 3.307 2.339 2.339 0 0 0-.002-3.306zm-5.512-5.512a2.338 2.338 0 1 0 0 3.307 2.339 2.339 0 0 0-.002-3.306zm-5.512-5.512a2.338 2.338 0 1 0 0 3.307 2.339 2.339 0 0 0-.004-3.305zm-5.512-5.512a2.338 2.338 0 1 0 0 3.307 2.339 2.339 0 0 0-.002-3.305zm-5.512-5.512a2.338 2.338 0 1 0 0 3.307 2.339 2.339 0 0 0-.001-3.305zm-5.512-5.512a2.338 2.338 0 1 0 0 3.307 2.338 2.338 0 0 0-.001-3.304zm-5.512-5.512a2.338 2.338 0 1 0 0 3.307 2.338 2.338 0 0 0-.001-3.304zm-5.512-5.513a2.339 2.339 0 1 0 0 3.308 2.339 2.339 0 0 0-.001-3.305zm-5.512-5.512a2.339 2.339 0 1 0 0 3.308 2.339 2.339 0 0 0 0-3.305zm-5.512-5.512a2.339 2.339 0 1 0 0 3.308 2.339 2.339 0 0 0 0-3.304zm-5.512-5.512a2.339 2.339 0 1 0 0 3.308 2.339 2.339 0 0 0 0-3.304zm-5.512-5.512a2.339 2.339 0 1 0 0 3.308 2.339 2.339 0 0 0 .004-3.304zm-5.512-5.512a2.339 2.339 0 1 0 0 3.308 2.339 2.339 0 0 0 0-3.303zm-5.512-5.512a2.339 2.339 0 1 0 0 3.308 2.339 2.339 0 0 0 .001-3.303zm-5.512-5.512a2.339 2.339 0 1 0 0 3.308 2.339 2.339 0 0 0 .001-3.303zm-5.512-5.512a2.338 2.338 0 1 0 0 3.307 2.339 2.339 0 0 0 .001-3.302zm-5.512-5.512a2.338 2.338 0 1 0 0 3.307 2.339 2.339 0 0 0 .001-3.301zm-5.512-5.512a2.338 2.338 0 1 0 0 3.307 2.339 2.339 0 0 0 .002-3.301zm-5.512-5.512a2.338 2.338 0 1 0 0 3.307 2.339 2.339 0 0 0 .002-3.301zm-5.512-5.512a2.338 2.338 0 1 0 0 3.307 2.339 2.339 0 0 0 0-3.3zm-5.855-5.168a1.852 1.852 0 1 0 0 2.619 1.852 1.852 0 0 0 .001-2.612zM851.6 9924.735a1.715 1.715 0 1 0 0 2.425 1.714 1.714 0 0 0 0-2.425zm-5.071-5.953a2.339 2.339 0 1 0 0 3.308 2.339 2.339 0 0 0 .003-3.308zm-5.512-5.512a2.339 2.339 0 1 0 0 3.308 2.339 2.339 0 0 0 .003-3.307zm-5.512-5.512a2.339 2.339 0 1 0 0 3.308 2.339 2.339 0 0 0 .003-3.307zm-5.505-5.511a2.339 2.339 0 1 0 0 3.308 2.339 2.339 0 0 0 0-3.308zm-5.512-5.512a2.339 2.339 0 1 0 0 3.308 2.339 2.339 0 0 0-.003-3.308zm-5.512-5.512a2.339 2.339 0 1 0 0 3.308 2.339 2.339 0 0 0-.003-3.307zm-5.512-5.512a2.338 2.338 0 1 0 0 3.307 2.339 2.339 0 0 0-.003-3.306zm-5.512-5.512a2.338 2.338 0 1 0 0 3.307 2.339 2.339 0 0 0-.003-3.306zm-5.512-5.512a2.338 2.338 0 1 0 0 3.307 2.339 2.339 0 0 0-.002-3.306zm-5.512-5.512a2.338 2.338 0 1 0 0 3.307 2.339 2.339 0 0 0-.002-3.305zm-5.512-5.512a2.338 2.338 0 1 0 0 3.307 2.339 2.339 0 0 0-.002-3.305zm-5.512-5.512a2.338 2.338 0 1 0 0 3.307 2.339 2.339 0 0 0-.004-3.305zm-5.512-5.512a2.338 2.338 0 1 0 0 3.307 2.339 2.339 0 0 0-.001-3.304zm-5.512-5.512a2.338 2.338 0 1 0 0 3.307 2.338 2.338 0 0 0-.001-3.304zm-5.512-5.512a2.338 2.338 0 1 0 0 3.307 2.337 2.337 0 0 0-.001-3.304zm-5.512-5.513a2.339 2.339 0 1 0 0 3.308 2.339 2.339 0 0 0-.001-3.305zm-5.512-5.512a2.339 2.339 0 1 0 0 3.308 2.339 2.339 0 0 0-.001-3.304zm-5.512-5.512a2.339 2.339 0 1 0 0 3.308 2.339 2.339 0 0 0 0-3.304zm-5.512-5.512a2.339 2.339 0 1 0 0 3.308 2.339 2.339 0 0 0 0-3.304zm-5.512-5.512a2.339 2.339 0 1 0 0 3.308 2.339 2.339 0 0 0 0-3.303zm-5.512-5.512a2.339 2.339 0 1 0 0 3.308 2.339 2.339 0 0 0 .004-3.303zm-5.512-5.512a2.339 2.339 0 1 0 0 3.308 2.339 2.339 0 0 0 0-3.303zm-5.512-5.512a2.338 2.338 0 1 0 0 3.307 2.339 2.339 0 0 0 .001-3.302zm-5.512-5.512a2.338 2.338 0 1 0 0 3.307 2.339 2.339 0 0 0 .001-3.301zm-5.512-5.512a2.338 2.338 0 1 0 0 3.307 2.339 2.339 0 0 0 .001-3.301zm-5.512-5.512a2.338 2.338 0 1 0 0 3.307 2.339 2.339 0 0 0 .001-3.301zm-5.512-5.512a2.338 2.338 0 1 0 0 3.307 2.339 2.339 0 0 0 .002-3.3zm-5.512-5.512a2.338 2.338 0 1 0 0 3.307 2.339 2.339 0 0 0 .002-3.3zm-6.945-4.079a.312.312 0 1 0 0 .441.311.311 0 0 0 .002-.434zm171.287 159.42a.908.908 0 1 0 0 1.284.908.908 0 0 0 .002-1.277zm-4.559-6.465a2.256 2.256 0 1 0 0 3.19 2.256 2.256 0 0 0 .005-3.183zm-5.453-5.57a2.339 2.339 0 1 0 0 3.308 2.339 2.339 0 0 0 .002-3.301zm-5.512-5.512a2.339 2.339 0 1 0 0 3.308 2.339 2.339 0 0 0 .002-3.301zm-5.512-5.512a2.339 2.339 0 1 0 0 3.308 2.339 2.339 0 0 0 .002-3.301zm-5.512-5.512a2.339 2.339 0 1 0 0 3.308 2.339 2.339 0 0 0 .002-3.301zm-5.506-5.504a2.339 2.339 0 1 0 0 3.308 2.339 2.339 0 0 0 0-3.308zm-5.512-5.512a2.338 2.338 0 1 0 0 3.308 2.339 2.339 0 0 0-.003-3.308zm-5.512-5.512a2.338 2.338 0 1 0 0 3.307 2.339 2.339 0 0 0-.003-3.307zm-5.512-5.512a2.338 2.338 0 1 0 0 3.307 2.339 2.339 0 0 0-.003-3.307zm-5.512-5.512a2.338 2.338 0 1 0 0 3.307 2.339 2.339 0 0 0-.003-3.306zm-5.512-5.512a2.338 2.338 0 1 0 0 3.307 2.339 2.339 0 0 0-.002-3.306zm-5.512-5.512a2.338 2.338 0 1 0 0 3.307 2.339 2.339 0 0 0-.002-3.306zm-5.512-5.512a2.338 2.338 0 1 0 0 3.307 2.339 2.339 0 0 0-.002-3.305zm-5.512-5.512a2.338 2.338 0 1 0 0 3.307 2.339 2.339 0 0 0-.004-3.305zm-5.512-5.512a2.338 2.338 0 1 0 0 3.307 2.337 2.337 0 0 0-.001-3.305zm-5.512-5.512a2.338 2.338 0 1 0 0 3.307 2.338 2.338 0 0 0-.001-3.305zm-5.512-5.513a2.339 2.339 0 1 0 0 3.308 2.339 2.339 0 0 0-.001-3.305zm-5.512-5.512a2.339 2.339 0 1 0 0 3.308 2.339 2.339 0 0 0-.001-3.305zm-5.512-5.512a2.339 2.339 0 1 0 0 3.308 2.339 2.339 0 0 0-.001-3.305zm-5.512-5.512a2.339 2.339 0 1 0 0 3.308 2.339 2.339 0 0 0 0-3.304zm-5.512-5.512a2.339 2.339 0 1 0 0 3.308 2.339 2.339 0 0 0 0-3.304zm-5.512-5.512a2.339 2.339 0 1 0 0 3.308 2.339 2.339 0 0 0 0-3.304zm-5.512-5.512a2.338 2.338 0 1 0 0 3.307 2.339 2.339 0 0 0 .004-3.303zm-5.512-5.512a2.338 2.338 0 1 0 0 3.307 2.339 2.339 0 0 0 0-3.302zm-5.512-5.512a2.338 2.338 0 1 0 0 3.307 2.339 2.339 0 0 0 .001-3.302zm-5.512-5.512a2.338 2.338 0 1 0 0 3.307 2.339 2.339 0 0 0 .001-3.302zm-5.512-5.512a2.338 2.338 0 1 0 0 3.307 2.339 2.339 0 0 0 .001-3.301zm-5.791-5.233a1.944 1.944 0 1 0 0 2.75 1.945 1.945 0 0 0 .001-2.745zm158.668 149.992a.284.284 0 1 0 0 .4.284.284 0 0 0 .001-.395zm-4.092-6.932a2.293 2.293 0 1 0 0 3.242 2.292 2.292 0 0 0 .002-3.24zm-5.479-5.545a2.339 2.339 0 1 0 0 3.308 2.339 2.339 0 0 0 .001-3.302zm-5.512-5.512a2.339 2.339 0 1 0 0 3.308 2.339 2.339 0 0 0 .002-3.302zm-5.512-5.512a2.339 2.339 0 1 0 0 3.308 2.339 2.339 0 0 0 .002-3.302zm-5.512-5.512a2.339 2.339 0 1 0 0 3.308 2.339 2.339 0 0 0 .002-3.301zm-5.512-5.512a2.338 2.338 0 1 0 0 3.308 2.339 2.339 0 0 0 .002-3.301zM830 9880.2a2.338 2.338 0 1 0 0 3.308 2.339 2.339 0 0 0 0-3.308zm-5.512-5.512a2.338 2.338 0 1 0 0 3.307 2.339 2.339 0 0 0-.003-3.307zm-5.512-5.512a2.338 2.338 0 1 0 0 3.307 2.339 2.339 0 0 0-.003-3.306zm-5.512-5.512a2.338 2.338 0 1 0 0 3.307 2.339 2.339 0 0 0-.003-3.306zm-5.512-5.512a2.338 2.338 0 1 0 0 3.307 2.339 2.339 0 0 0-.003-3.306zm-5.512-5.512a2.338 2.338 0 1 0 0 3.307 2.339 2.339 0 0 0-.002-3.305zm-5.512-5.512a2.338 2.338 0 1 0 0 3.307 2.339 2.339 0 0 0-.002-3.305zm-5.512-5.512a2.338 2.338 0 1 0 0 3.307 2.337 2.337 0 0 0-.002-3.305zm-5.512-5.512a2.338 2.338 0 1 0 0 3.307 2.338 2.338 0 0 0-.004-3.305zm-5.512-5.512a2.338 2.338 0 1 0 0 3.307 2.338 2.338 0 0 0-.001-3.304zm-5.512-5.513a2.339 2.339 0 1 0 0 3.308 2.339 2.339 0 0 0-.001-3.305zm-5.512-5.512a2.339 2.339 0 1 0 0 3.308 2.339 2.339 0 0 0-.001-3.305zm-5.512-5.512a2.339 2.339 0 1 0 0 3.308 2.339 2.339 0 0 0-.001-3.304zm-5.512-5.512a2.339 2.339 0 1 0 0 3.308 2.339 2.339 0 0 0-.001-3.304zm-5.512-5.512a2.339 2.339 0 1 0 0 3.308 2.339 2.339 0 0 0 0-3.304zm-5.512-5.512a2.339 2.339 0 1 0 0 3.308 2.339 2.339 0 0 0 0-3.304zm-5.512-5.512a2.338 2.338 0 1 0 0 3.307 2.339 2.339 0 0 0 0-3.302zm-5.508-5.507a2.338 2.338 0 1 0 0 3.307 2.339 2.339 0 0 0 0-3.307zm-5.512-5.512a2.338 2.338 0 1 0 0 3.307 2.339 2.339 0 0 0-.004-3.307zm-5.615-5.408a2.192 2.192 0 1 0 0 3.1 2.192 2.192 0 0 0-.004-3.1zm-6.549-4.475a.725.725 0 1 0 0 1.025.726.726 0 0 0-.004-1.025zm155.238 142.4a2.009 2.009 0 1 0 0 2.841 2.008 2.008 0 0 0-.005-2.846zm-5.278-5.745a2.339 2.339 0 1 0 0 3.308 2.339 2.339 0 0 0-.005-3.309zm-5.512-5.512a2.339 2.339 0 1 0 0 3.308 2.339 2.339 0 0 0-.005-3.309zm-5.512-5.512a2.339 2.339 0 1 0 0 3.308 2.339 2.339 0 0 0-.005-3.309zm-5.512-5.512a2.339 2.339 0 1 0 0 3.308 2.339 2.339 0 0 0-.004-3.308zm-5.512-5.512a2.338 2.338 0 1 0 0 3.308 2.339 2.339 0 0 0-.004-3.308zm-5.512-5.512a2.338 2.338 0 1 0 0 3.308 2.339 2.339 0 0 0-.004-3.308zm-5.512-5.512a2.338 2.338 0 1 0 0 3.307 2.339 2.339 0 0 0-.004-3.307zm-5.512-5.511a2.338 2.338 0 1 0 0 3.307 2.339 2.339 0 0 0 0-3.307zm-5.512-5.512a2.338 2.338 0 1 0 0 3.307 2.339 2.339 0 0 0-.003-3.307zm-5.512-5.512a2.338 2.338 0 1 0 0 3.307 2.339 2.339 0 0 0-.003-3.307zm-5.512-5.512a2.338 2.338 0 1 0 0 3.307 2.339 2.339 0 0 0-.003-3.306zm-5.512-5.512a2.338 2.338 0 1 0 0 3.307 2.339 2.339 0 0 0-.003-3.306zm-5.512-5.512a2.338 2.338 0 1 0 0 3.307 2.337 2.337 0 0 0-.002-3.306zm-5.512-5.512a2.338 2.338 0 1 0 0 3.307 2.338 2.338 0 0 0-.002-3.306zm-5.512-5.512a2.338 2.338 0 1 0 0 3.307 2.338 2.338 0 0 0-.002-3.305zm-5.512-5.513a2.339 2.339 0 1 0 0 3.308 2.339 2.339 0 0 0-.004-3.306zm-5.512-5.512a2.339 2.339 0 1 0 0 3.308 2.339 2.339 0 0 0-.001-3.306zm-5.512-5.512a2.339 2.339 0 1 0 0 3.308 2.339 2.339 0 0 0-.001-3.305zm-5.512-5.512a2.339 2.339 0 1 0 0 3.308 2.339 2.339 0 0 0-.001-3.305zm-5.512-5.512a2.339 2.339 0 1 0 0 3.308 2.339 2.339 0 0 0-.001-3.305zm-5.512-5.512a2.339 2.339 0 1 0 0 3.308 2.339 2.339 0 0 0-.001-3.305zm-5.512-5.512a2.338 2.338 0 1 0 0 3.307 2.339 2.339 0 0 0 0-3.303zm-5.512-5.512a2.338 2.338 0 1 0 0 3.307 2.339 2.339 0 0 0 0-3.303zm-5.512-5.512a2.338 2.338 0 1 0 0 3.307 2.339 2.339 0 0 0 0-3.303zm-12.508-9.539a.239.239 0 1 0 0 .338.239.239 0 0 0 0-.334zm187.621 176.157a.55.55 0 1 0 0 .777.55.55 0 0 0 0-.777zm-5.278-5.746a.88.88 0 1 0 0 1.245.881.881 0 0 0-.001-1.241zm-21.924-22.17a1.055 1.055 0 1 0 0 1.491 1.054 1.054 0 0 0-.001-1.487zm-4.792-6.231a2.072 2.072 0 1 0 0 2.931 2.072 2.072 0 0 0-.001-2.927zm-5.324-5.7a2.339 2.339 0 1 0 0 3.308 2.339 2.339 0 0 0-.003-3.304zm-5.512-5.512a2.339 2.339 0 1 0 0 3.308 2.339 2.339 0 0 0 0-3.308zm-5.512-5.512a2.339 2.339 0 1 0 0 3.308 2.339 2.339 0 0 0 0-3.304zm-5.512-5.512a2.339 2.339 0 1 0 0 3.308 2.339 2.339 0 0 0 0-3.303zm-5.512-5.512a2.338 2.338 0 1 0 0 3.308 2.339 2.339 0 0 0 0-3.303zm-5.512-5.512a2.338 2.338 0 1 0 0 3.308 2.339 2.339 0 0 0 .001-3.303zm-5.512-5.512a2.338 2.338 0 1 0 0 3.307 2.339 2.339 0 0 0 .001-3.302zm-5.512-5.512a2.338 2.338 0 1 0 0 3.307 2.339 2.339 0 0 0 .001-3.301zm-5.512-5.512a2.338 2.338 0 1 0 0 3.307 2.339 2.339 0 0 0 .001-3.301zm-5.507-5.506a2.338 2.338 0 1 0 0 3.307 2.339 2.339 0 0 0 0-3.307zm-5.512-5.512a2.338 2.338 0 1 0 0 3.307 2.339 2.339 0 0 0-.003-3.306zm-5.512-5.512a2.338 2.338 0 1 0 0 3.307 2.339 2.339 0 0 0-.003-3.306zm-5.512-5.512a2.338 2.338 0 1 0 0 3.307 2.337 2.337 0 0 0-.003-3.306zm-5.512-5.512a2.338 2.338 0 1 0 0 3.307 2.338 2.338 0 0 0-.003-3.306zm-5.512-5.512a2.338 2.338 0 1 0 0 3.307 2.338 2.338 0 0 0-.002-3.305zm-5.512-5.513a2.339 2.339 0 1 0 0 3.308 2.339 2.339 0 0 0-.002-3.306zm-5.512-5.512a2.339 2.339 0 1 0 0 3.308 2.339 2.339 0 0 0-.002-3.306zm-5.512-5.512a2.339 2.339 0 1 0 0 3.308 2.339 2.339 0 0 0-.004-3.305zm-5.512-5.512a2.339 2.339 0 1 0 0 3.308 2.339 2.339 0 0 0-.001-3.305zm-5.512-5.512a2.339 2.339 0 1 0 0 3.308 2.339 2.339 0 0 0-.001-3.305zm-5.512-5.512a2.339 2.339 0 1 0 0 3.308 2.339 2.339 0 0 0-.001-3.305zm-5.512-5.512a2.338 2.338 0 1 0 0 3.307 2.339 2.339 0 0 0-.001-3.303zm-5.512-5.512a2.338 2.338 0 1 0 0 3.307 2.339 2.339 0 0 0-.001-3.303zm-5.531-5.492a2.311 2.311 0 1 0 0 3.268 2.311 2.311 0 0 0-.001-3.264zm-6.394-4.63a1.064 1.064 0 1 0 0 1.5 1.063 1.063 0 0 0 0-1.496zm181.305 171.448a.239.239 0 1 0 0 .338.239.239 0 0 0 0-.334zm-4.293-6.73a1.963 1.963 0 1 0 0 2.775 1.962 1.962 0 0 0 0-2.767zm-5.246-5.777a2.338 2.338 0 1 0 0 3.307 2.339 2.339 0 0 0 0-3.304zm-5.525-5.5a2.32 2.32 0 1 0 0 3.281 2.32 2.32 0 0 0 0-3.277zm-6.1-4.929a1.495 1.495 0 1 0 0 2.114 1.5 1.5 0 0 0 .005-2.109zM896 9913.414a2.137 2.137 0 1 0 0 3.021 2.136 2.136 0 0 0 0-3.021zm-5.369-5.655a2.339 2.339 0 1 0 0 3.308 2.339 2.339 0 0 0 0-3.308zm-5.512-5.512a2.339 2.339 0 1 0 0 3.308 2.339 2.339 0 0 0-.005-3.308zm-5.512-5.512a2.339 2.339 0 1 0 0 3.308 2.339 2.339 0 0 0-.007-3.308zm-5.512-5.512a2.339 2.339 0 1 0 0 3.308 2.339 2.339 0 0 0-.004-3.307zm-5.512-5.512a2.338 2.338 0 1 0 0 3.308 2.339 2.339 0 0 0-.004-3.307zm-5.512-5.512a2.338 2.338 0 1 0 0 3.308 2.339 2.339 0 0 0-.004-3.307zm-5.512-5.512a2.338 2.338 0 1 0 0 3.307 2.339 2.339 0 0 0-.004-3.306zm-5.512-5.512a2.338 2.338 0 1 0 0 3.307 2.339 2.339 0 0 0-.003-3.305zm-5.512-5.512a2.338 2.338 0 1 0 0 3.307 2.339 2.339 0 0 0-.003-3.305zm-5.512-5.512a2.338 2.338 0 1 0 0 3.307 2.339 2.339 0 0 0-.003-3.305zm-5.512-5.512a2.338 2.338 0 1 0 0 3.307 2.339 2.339 0 0 0-.003-3.304zM830 9847.13a2.338 2.338 0 1 0 0 3.307 2.339 2.339 0 0 0 0-3.307zm-5.512-5.512a2.338 2.338 0 1 0 0 3.307 2.337 2.337 0 0 0-.003-3.307zm-5.512-5.512a2.338 2.338 0 1 0 0 3.307 2.337 2.337 0 0 0-.003-3.307zm-5.512-5.512a2.338 2.338 0 1 0 0 3.307 2.338 2.338 0 0 0-.003-3.306zm-5.512-5.513a2.339 2.339 0 1 0 0 3.308 2.339 2.339 0 0 0-.003-3.307zm-5.512-5.512a2.339 2.339 0 1 0 0 3.308 2.339 2.339 0 0 0-.002-3.307zm-5.512-5.512a2.339 2.339 0 1 0 0 3.308 2.339 2.339 0 0 0-.002-3.306zm-5.512-5.512a2.339 2.339 0 1 0 0 3.308 2.339 2.339 0 0 0-.002-3.306zm-5.512-5.512a2.339 2.339 0 1 0 0 3.308 2.339 2.339 0 0 0-.004-3.306zm-5.512-5.512a2.339 2.339 0 1 0 0 3.308 2.339 2.339 0 0 0-.001-3.306zm-5.512-5.512a2.338 2.338 0 1 0 0 3.307 2.339 2.339 0 0 0-.001-3.304zm-5.512-5.512a2.338 2.338 0 1 0 0 3.307 2.339 2.339 0 0 0-.001-3.304zm-5.551-5.473a2.284 2.284 0 1 0 0 3.229 2.284 2.284 0 0 0-.001-3.226zm-6.783-4.241a.486.486 0 1 0 0 .688.487.487 0 0 0 0-.685zM918 9924.482a2.072 2.072 0 1 0 0 2.931 2.072 2.072 0 0 0 0-2.931zm-5.421-5.6a2.2 2.2 0 1 0 0 3.112 2.2 2.2 0 0 0-.003-3.114zm-5.415-5.609a2.339 2.339 0 1 0 0 3.308 2.339 2.339 0 0 0-.003-3.31zm-5.512-5.512a2.339 2.339 0 1 0 0 3.308 2.339 2.339 0 0 0-.002-3.31zm-5.512-5.512a2.339 2.339 0 1 0 0 3.308 2.339 2.339 0 0 0-.002-3.31zm-5.512-5.512a2.339 2.339 0 1 0 0 3.308 2.339 2.339 0 0 0-.002-3.31zm-5.512-5.512a2.339 2.339 0 1 0 0 3.308 2.339 2.339 0 0 0-.002-3.309zm-5.512-5.512a2.338 2.338 0 1 0 0 3.308 2.339 2.339 0 0 0-.004-3.309zm-5.512-5.512a2.338 2.338 0 1 0 0 3.308 2.339 2.339 0 0 0-.001-3.309zm-5.512-5.512a2.338 2.338 0 1 0 0 3.307 2.339 2.339 0 0 0-.001-3.308zm-5.512-5.512a2.338 2.338 0 1 0 0 3.307 2.339 2.339 0 0 0-.001-3.307zm-5.512-5.512a2.338 2.338 0 1 0 0 3.307 2.339 2.339 0 0 0 0-3.307zm-5.512-5.512a2.338 2.338 0 1 0 0 3.307 2.339 2.339 0 0 0 0-3.307zm-5.512-5.512a2.338 2.338 0 1 0 0 3.307 2.339 2.339 0 0 0 0-3.306zm-5.512-5.512a2.338 2.338 0 1 0 0 3.307 2.339 2.339 0 0 0 0-3.306zm-5.512-5.512a2.338 2.338 0 1 0 0 3.307 2.339 2.339 0 0 0 0-3.306zm-5.508-5.512a2.339 2.339 0 1 0 0 3.308 2.338 2.338 0 0 0 0-3.308zm-5.512-5.512a2.339 2.339 0 1 0 0 3.308 2.338 2.338 0 0 0-.003-3.307zm-5.512-5.512a2.339 2.339 0 1 0 0 3.308 2.339 2.339 0 0 0-.003-3.307zm-5.512-5.512a2.339 2.339 0 1 0 0 3.308 2.339 2.339 0 0 0-.003-3.307zm-5.512-5.512a2.339 2.339 0 1 0 0 3.308 2.339 2.339 0 0 0-.002-3.306zm-5.512-5.512a2.339 2.339 0 1 0 0 3.308 2.339 2.339 0 0 0-.002-3.306zm-5.512-5.512a2.339 2.339 0 1 0 0 3.308 2.339 2.339 0 0 0-.002-3.306zm-5.512-5.512a2.339 2.339 0 1 0 0 3.308 2.339 2.339 0 0 0-.002-3.306zm-5.512-5.512a2.338 2.338 0 1 0 0 3.307 2.339 2.339 0 0 0-.004-3.304zm-5.512-5.512a2.338 2.338 0 1 0 0 3.307 2.339 2.339 0 0 0-.001-3.304zm-5.817-5.207a1.907 1.907 0 1 0 0 2.7 1.907 1.907 0 0 0-.001-2.697zm142.009 133.58a.072.072 0 0 0-.1 0 .073.073 0 0 0 0 .1.073.073 0 0 0 .1-.1zm-9.422-12.626a2.339 2.339 0 1 0 0 3.308 2.339 2.339 0 0 0 0-3.308zm-5.512-5.512a2.339 2.339 0 1 0 0 3.308 2.339 2.339 0 0 0 0-3.305zm-5.512-5.512a2.339 2.339 0 1 0 0 3.308 2.339 2.339 0 0 0 0-3.304zm-5.512-5.512a2.339 2.339 0 1 0 0 3.308 2.339 2.339 0 0 0 0-3.304zm-5.512-5.512a2.339 2.339 0 1 0 0 3.308 2.339 2.339 0 0 0 0-3.304zm-5.512-5.512a2.338 2.338 0 1 0 0 3.307 2.339 2.339 0 0 0-.002-3.303zm-5.512-5.512a2.338 2.338 0 1 0 0 3.307 2.339 2.339 0 0 0 .001-3.302zm-5.512-5.512a2.338 2.338 0 1 0 0 3.307 2.339 2.339 0 0 0 .001-3.302zm-5.512-5.512a2.338 2.338 0 1 0 0 3.307 2.339 2.339 0 0 0 .001-3.302zm-5.512-5.512a2.338 2.338 0 1 0 0 3.307 2.339 2.339 0 0 0 .002-3.301zm-5.512-5.512a2.338 2.338 0 1 0 0 3.307 2.339 2.339 0 0 0 .002-3.301zm-5.512-5.512a2.338 2.338 0 1 0 0 3.307 2.339 2.339 0 0 0 .002-3.301zm-5.512-5.512a2.338 2.338 0 1 0 0 3.307 2.337 2.337 0 0 0 .002-3.301zm-5.512-5.513a2.339 2.339 0 1 0 0 3.308 2.338 2.338 0 0 0 .002-3.301zm-5.506-5.505a2.339 2.339 0 1 0 0 3.308 2.339 2.339 0 0 0 0-3.308zm-5.512-5.512a2.339 2.339 0 1 0 0 3.308 2.339 2.339 0 0 0-.003-3.308zm-5.512-5.512a2.339 2.339 0 1 0 0 3.308 2.339 2.339 0 0 0-.003-3.307zm-5.512-5.512a2.339 2.339 0 1 0 0 3.308 2.339 2.339 0 0 0-.003-3.307zm-5.512-5.512a2.339 2.339 0 1 0 0 3.308 2.339 2.339 0 0 0-.002-3.307zm-5.512-5.512a2.339 2.339 0 1 0 0 3.308 2.339 2.339 0 0 0-.002-3.307zm-5.512-5.512a2.339 2.339 0 1 0 0 3.308 2.339 2.339 0 0 0-.002-3.306zm-5.512-5.512a2.338 2.338 0 1 0 0 3.307 2.339 2.339 0 0 0-.002-3.305zm-6.219-4.8a1.339 1.339 0 1 0 0 1.894 1.338 1.338 0 0 0 .003-1.892zm127.3 115.222a2.082 2.082 0 1 0 0 2.944 2.083 2.083 0 0 0-.005-2.947zm-5.33-5.693a2.339 2.339 0 1 0 0 3.308 2.339 2.339 0 0 0-.005-3.311zm-5.512-5.512a2.339 2.339 0 1 0 0 3.308 2.339 2.339 0 0 0-.005-3.311zm-5.512-5.512a2.339 2.339 0 1 0 0 3.308 2.339 2.339 0 0 0-.005-3.311zm-5.512-5.512a2.338 2.338 0 1 0 0 3.307 2.339 2.339 0 0 0-.005-3.31zm-5.512-5.512a2.338 2.338 0 1 0 0 3.307 2.339 2.339 0 0 0-.005-3.309zm-5.512-5.512a2.338 2.338 0 1 0 0 3.307 2.339 2.339 0 0 0-.007-3.309zm-5.512-5.512a2.338 2.338 0 1 0 0 3.307 2.339 2.339 0 0 0-.004-3.309zm-5.512-5.512a2.338 2.338 0 1 0 0 3.307 2.339 2.339 0 0 0-.004-3.308zm-5.512-5.512a2.338 2.338 0 1 0 0 3.307 2.339 2.339 0 0 0-.004-3.308zm-5.512-5.512a2.338 2.338 0 1 0 0 3.307 2.339 2.339 0 0 0-.003-3.308zm-5.512-5.512a2.338 2.338 0 1 0 0 3.307 2.337 2.337 0 0 0-.003-3.308zm-5.512-5.512a2.338 2.338 0 1 0 0 3.307 2.337 2.337 0 0 0-.003-3.307zm-5.512-5.513a2.339 2.339 0 1 0 0 3.308 2.339 2.339 0 0 0-.003-3.308zm-5.512-5.512a2.339 2.339 0 1 0 0 3.308 2.339 2.339 0 0 0-.003-3.308zm-5.511-5.511a2.339 2.339 0 1 0 0 3.308 2.339 2.339 0 0 0 0-3.308zm-5.512-5.512a2.339 2.339 0 1 0 0 3.308 2.339 2.339 0 0 0-.003-3.308zm-5.512-5.512a2.339 2.339 0 1 0 0 3.308 2.339 2.339 0 0 0-.003-3.308zm-5.512-5.512a2.339 2.339 0 1 0 0 3.308 2.339 2.339 0 0 0-.003-3.308zm-5.512-5.512a2.339 2.339 0 1 0 0 3.308 2.339 2.339 0 0 0-.002-3.307zm-5.512-5.512a2.338 2.338 0 1 0 0 3.307 2.339 2.339 0 0 0-.002-3.306zm115.637 104.834a2.183 2.183 0 1 0 0 3.087 2.182 2.182 0 0 0 0-3.087zm-5.4-5.622a2.339 2.339 0 1 0 0 3.308 2.339 2.339 0 0 0-.004-3.307zm-5.512-5.512a2.339 2.339 0 1 0 0 3.308 2.339 2.339 0 0 0-.003-3.307zm-5.512-5.512a2.338 2.338 0 1 0 0 3.307 2.339 2.339 0 0 0-.003-3.306zm-5.512-5.512a2.338 2.338 0 1 0 0 3.307 2.339 2.339 0 0 0-.003-3.305zm-5.512-5.512a2.338 2.338 0 1 0 0 3.307 2.339 2.339 0 0 0-.003-3.305zm-5.512-5.512a2.338 2.338 0 1 0 0 3.307 2.339 2.339 0 0 0-.003-3.305zm-5.512-5.512a2.338 2.338 0 1 0 0 3.307 2.339 2.339 0 0 0-.005-3.304zm-5.512-5.512a2.338 2.338 0 1 0 0 3.307 2.339 2.339 0 0 0-.002-3.304zm-5.512-5.512a2.338 2.338 0 1 0 0 3.307 2.339 2.339 0 0 0-.002-3.304zm-5.512-5.512a2.338 2.338 0 1 0 0 3.307 2.338 2.338 0 0 0-.002-3.304zm-5.512-5.512a2.338 2.338 0 1 0 0 3.307 2.337 2.337 0 0 0-.001-3.303zm-5.512-5.513a2.339 2.339 0 1 0 0 3.308 2.339 2.339 0 0 0-.001-3.304zm-5.512-5.512a2.339 2.339 0 1 0 0 3.308 2.339 2.339 0 0 0-.001-3.304zm-5.512-5.512a2.339 2.339 0 1 0 0 3.308 2.339 2.339 0 0 0-.001-3.303zm-5.512-5.512a2.339 2.339 0 1 0 0 3.308 2.339 2.339 0 0 0-.001-3.303zm-5.509-5.507a2.339 2.339 0 1 0 0 3.308 2.339 2.339 0 0 0 0-3.308zm-5.512-5.512a2.339 2.339 0 1 0 0 3.308 2.339 2.339 0 0 0-.003-3.308zm-5.512-5.512a2.339 2.339 0 1 0 0 3.308 2.339 2.339 0 0 0-.003-3.307zm-5.512-5.512a2.339 2.339 0 1 0 0 3.308 2.339 2.339 0 0 0-.003-3.307zm-6.672-4.351a.7.7 0 1 0 0 .985.7.7 0 0 0-.003-.984zm116.331 104.14a1.522 1.522 0 1 0 0 2.153 1.522 1.522 0 0 0 0-2.153zm-4.935-6.089a2.339 2.339 0 1 0 0 3.308 2.339 2.339 0 0 0-.003-3.307zm-5.512-5.512a2.339 2.339 0 1 0 0 3.308 2.339 2.339 0 0 0-.003-3.307zm-5.512-5.512a2.338 2.338 0 1 0 0 3.307 2.339 2.339 0 0 0-.002-3.305zm-5.512-5.512a2.338 2.338 0 1 0 0 3.307 2.339 2.339 0 0 0-.002-3.305zm-5.512-5.512a2.338 2.338 0 1 0 0 3.307 2.339 2.339 0 0 0-.002-3.305zm-5.512-5.512a2.338 2.338 0 1 0 0 3.307 2.339 2.339 0 0 0-.002-3.304zm-5.512-5.512a2.338 2.338 0 1 0 0 3.307 2.339 2.339 0 0 0-.002-3.304zm-5.512-5.512a2.338 2.338 0 1 0 0 3.307 2.339 2.339 0 0 0-.004-3.304zm-5.525-5.5a2.32 2.32 0 1 0 0 3.281 2.32 2.32 0 0 0-.001-3.277zm-16.522-16.549a2.339 2.339 0 1 0 0 3.308 2.339 2.339 0 0 0-.001-3.304zm-5.512-5.512a2.339 2.339 0 1 0 0 3.308 2.339 2.339 0 0 0-.001-3.303zm-5.512-5.512a2.339 2.339 0 1 0 0 3.308 2.339 2.339 0 0 0-.001-3.303zm-5.512-5.512a2.339 2.339 0 1 0 0 3.308 2.339 2.339 0 0 0-.001-3.303zm-5.512-5.512a2.339 2.339 0 1 0 0 3.308 2.339 2.339 0 0 0-.001-3.303zm-5.509-5.506a2.339 2.339 0 1 0 0 3.308 2.339 2.339 0 0 0 0-3.308zm-5.512-5.512a2.339 2.339 0 1 0 0 3.308 2.339 2.339 0 0 0-.003-3.308zm-6.718-4.306a.633.633 0 1 0 0 .895.633.633 0 0 0-.003-.895zm110.709 98.739a1.3 1.3 0 1 0 0 1.841 1.3 1.3 0 0 0-.003-1.84zm-4.779-6.245a2.339 2.339 0 1 0 0 3.308 2.339 2.339 0 0 0 0-3.308zm-5.512-5.512a2.338 2.338 0 1 0 0 3.307 2.339 2.339 0 0 0-.003-3.306zm-5.512-5.512a2.338 2.338 0 1 0 0 3.307 2.339 2.339 0 0 0-.003-3.306zm-5.512-5.512a2.338 2.338 0 1 0 0 3.307 2.339 2.339 0 0 0-.002-3.306zm-5.512-5.512a2.338 2.338 0 1 0 0 3.307 2.339 2.339 0 0 0-.002-3.305zm-5.512-5.512a2.338 2.338 0 1 0 0 3.307 2.339 2.339 0 0 0-.002-3.305zm-5.512-5.512a2.338 2.338 0 1 0 0 3.307 2.339 2.339 0 0 0-.002-3.305zm-5.512-5.512a2.338 2.338 0 1 0 0 3.307 2.338 2.338 0 0 0-.001-3.305zm-5.512-5.512a2.338 2.338 0 1 0 0 3.307 2.338 2.338 0 0 0-.004-3.304zm-6.1-4.929a1.513 1.513 0 1 0 0 2.14 1.513 1.513 0 0 0 .003-2.137zm-10.589-11.458a2.128 2.128 0 1 0 0 3.009 2.127 2.127 0 0 0 .003-3.006zm-5.363-5.661a2.339 2.339 0 1 0 0 3.308 2.339 2.339 0 0 0 .004-3.305zm-5.512-5.512a2.339 2.339 0 1 0 0 3.308 2.339 2.339 0 0 0 .004-3.305zm-6.42-4.6a1.055 1.055 0 1 0 0 1.491 1.054 1.054 0 0 0 .004-1.491zm-4.656-6.368a2.265 2.265 0 1 0 0 3.2 2.265 2.265 0 0 0 .004-3.201zm88.24 77.113a2.338 2.338 0 1 0 0 3.307 2.339 2.339 0 0 0 .005-3.307zm-5.512-5.512a2.338 2.338 0 1 0 0 3.307 2.339 2.339 0 0 0 .008-3.307zm-5.512-5.512a2.338 2.338 0 1 0 0 3.307 2.339 2.339 0 0 0 .005-3.307zm-5.512-5.512a2.338 2.338 0 1 0 0 3.307 2.339 2.339 0 0 0 .005-3.306zm-5.512-5.512a2.338 2.338 0 1 0 0 3.307 2.339 2.339 0 0 0 .006-3.306zm-5.512-5.512a2.338 2.338 0 1 0 0 3.307 2.339 2.339 0 0 0 .006-3.306zm-5.544-5.479a2.293 2.293 0 1 0 0 3.242 2.292 2.292 0 0 0 .006-3.241zm-6.1-4.922a1.458 1.458 0 1 0 0 2.063 1.458 1.458 0 0 0 0-2.062zm-4.889-6.134a2.338 2.338 0 1 0 0 3.307 2.337 2.337 0 0 0 .004-3.306zm-5.512-5.513a2.339 2.339 0 1 0 0 3.308 2.338 2.338 0 0 0 .001-3.307zm-16.535-16.535a2.339 2.339 0 1 0 0 3.308 2.339 2.339 0 0 0 .003-3.307zm-5.687-5.336a2.091 2.091 0 1 0 0 2.956 2.089 2.089 0 0 0 .004-2.954zm-11.99-10.058a.724.724 0 1 0 0 1.024.724.724 0 0 0 .004-1.022zm93.713 82.66a.743.743 0 1 0 0 1.051.743.743 0 0 0 0-1.051zm-4.429-6.595a2.274 2.274 0 1 0 0 3.217 2.275 2.275 0 0 0 .004-3.212zm-5.466-5.557a2.338 2.338 0 1 0 0 3.307 2.339 2.339 0 0 0 .004-3.302zm-5.512-5.512a2.338 2.338 0 1 0 0 3.307 2.339 2.339 0 0 0 .007-3.301zm-5.512-5.512a2.338 2.338 0 1 0 0 3.307 2.339 2.339 0 0 0 .004-3.301zm-5.512-5.512a2.338 2.338 0 1 0 0 3.307 2.339 2.339 0 0 0 .004-3.301zm-5.512-5.512a2.338 2.338 0 1 0 0 3.307 2.339 2.339 0 0 0 .005-3.301zm-5.881-5.143a1.816 1.816 0 1 0 0 2.568 1.816 1.816 0 0 0 .004-2.561zm-6.763-4.26a.045.045 0 0 0-.065 0 .045.045 0 0 0 0 .064.047.047 0 0 0 .065 0 .046.046 0 0 0 .004-.061zm-4.027-7a2.146 2.146 0 1 0 0 3.035 2.146 2.146 0 0 0 .004-3.025zm-5.739-5.285a1.825 1.825 0 1 0 0 2.581 1.825 1.825 0 0 0 .004-2.571zm-5.149-5.875a2.339 2.339 0 1 0 0 3.308 2.339 2.339 0 0 0 .002-3.298zm54.106 45.106a.908.908 0 1 0 0 1.283.908.908 0 0 0 .005-1.273zm-10.004-12.025a2.338 2.338 0 1 0 0 3.307 2.339 2.339 0 0 0 0-3.307zm-5.512-5.512a2.338 2.338 0 1 0 0 3.307 2.339 2.339 0 0 0-.003-3.307zm-5.512-5.512a2.338 2.338 0 1 0 0 3.307 2.338 2.338 0 0 0-.003-3.306zm21.93 11.14a2.174 2.174 0 1 0 0 3.074 2.174 2.174 0 0 0-.006-3.074zm-5.4-5.628a2.338 2.338 0 1 0 0 3.307 2.339 2.339 0 0 0 .003-3.307zm-5.512-5.512a2.338 2.338 0 1 0 0 3.307 2.339 2.339 0 0 0 .006-3.306zm-5.512-5.512a2.338 2.338 0 1 0 0 3.307 2.337 2.337 0 0 0 .003-3.306zm-5.992-5.032a1.66 1.66 0 1 0 0 2.348 1.659 1.659 0 0 0 .004-2.347zm27.617 16.477a1.743 1.743 0 1 0 0 2.465 1.744 1.744 0 0 0 .004-2.465zm-5.09-5.933a2.338 2.338 0 1 0 0 3.307 2.339 2.339 0 0 0 0-3.307zm-5.512-5.512a2.338 2.338 0 1 0 0 3.307 2.337 2.337 0 0 0 .004-3.306zm-5.512-5.513a2.339 2.339 0 1 0 0 3.308 2.339 2.339 0 0 0 .007-3.307zm-6.407-4.616a1.073 1.073 0 1 0 0 1.518 1.073 1.073 0 0 0 0-1.518zm22.832 10.238a2.183 2.183 0 1 0 0 3.087 2.184 2.184 0 0 0 .004-3.086zm-5.4-5.622a2.339 2.339 0 1 0 0 3.308 2.339 2.339 0 0 0 0-3.308zm-5.512-5.512a2.339 2.339 0 1 0 0 3.308 2.339 2.339 0 0 0 .003-3.306zm16.535 5.512a2.339 2.339 0 1 0 0 3.308 2.339 2.339 0 0 0 0-3.308zm-5.512-5.512a2.339 2.339 0 1 0 0 3.308 2.339 2.339 0 0 0 0-3.308zm-5.512-5.512a2.339 2.339 0 1 0 0 3.308 2.339 2.339 0 0 0 0-3.308zm-5.739-5.284a2.017 2.017 0 1 0 0 2.853 2.017 2.017 0 0 0 .004-2.851zm16.762 5.284a2.339 2.339 0 1 0 0 3.308 2.339 2.339 0 0 0 0-3.308zm-5.512-5.512a2.339 2.339 0 1 0 0 3.308 2.339 2.339 0 0 0 0-3.308zm-6.543-4.48a.88.88 0 1 0 0 1.245.88.88 0 0 0 .004-1.243zm21.71 11.36a.4.4 0 1 0 0 .571.4.4 0 0 0 0-.571zm-4.2-6.821a2.256 2.256 0 1 0 0 3.19 2.256 2.256 0 0 0 .005-3.188zm-5.492-5.531a2.284 2.284 0 1 0 0 3.229 2.284 2.284 0 0 0 .002-3.227zm10.965.059a2.2 2.2 0 1 0 0 3.112 2.2 2.2 0 0 0 .002-3.111zm-5.648-5.376a2.009 2.009 0 1 0 0 2.841 2.008 2.008 0 0 0 .002-2.84zm11.2-.175a2.256 2.256 0 1 0 0 3.19 2.256 2.256 0 0 0 .001-3.189zm-5.453-5.57a2.339 2.339 0 1 0 0 3.308 2.339 2.339 0 0 0 .001-3.307zm4.85-4.851a1.4 1.4 0 1 0 0 1.984 1.4 1.4 0 0 0 .001-1.983z" class="cls-1" data-name="Tracé 110" transform="translate(-666.539 -9765.794)"/>
        </g>
    </g>
</svg>
