<svg xmlns="http://www.w3.org/2000/svg" xmlns:xlink="http://www.w3.org/1999/xlink" xmlns:serif="http://www.serif.com/" viewBox="0 0 100 125" version="1.1" xml:space="preserve" style="" x="0px" y="0px" fill-rule="evenodd" clip-rule="evenodd"><g><circle cx="44.717" cy="7.739" r="0.978"/><circle cx="48.24" cy="7.739" r="0.978"/><circle cx="44.717" cy="11.261" r="0.978"/><circle cx="48.24" cy="11.261" r="0.978"/><circle cx="51.76" cy="11.261" r="0.978"/><circle cx="55.283" cy="11.261" r="0.978"/><circle cx="44.717" cy="14.782" r="0.978"/><circle cx="48.24" cy="14.782" r="0.978"/><circle cx="51.76" cy="14.782" r="0.978"/><circle cx="55.283" cy="14.782" r="0.978"/><circle cx="58.805" cy="14.782" r="0.978"/><circle cx="37.674" cy="18.304" r="0.978"/><circle cx="41.196" cy="18.304" r="0.978"/><circle cx="44.717" cy="18.304" r="0.978"/><circle cx="48.24" cy="18.304" r="0.978"/><circle cx="51.76" cy="18.304" r="0.978"/><circle cx="55.283" cy="18.304" r="0.978"/><circle cx="58.805" cy="18.304" r="0.978"/><circle cx="62.326" cy="18.304" r="0.978"/><circle cx="65.849" cy="18.304" r="0.978"/><circle cx="23.587" cy="21.825" r="0.978"/><circle cx="27.108" cy="21.825" r="0.978"/><circle cx="37.674" cy="21.825" r="0.978"/><circle cx="41.196" cy="21.825" r="0.978"/><circle cx="44.717" cy="21.825" r="0.978"/><circle cx="48.24" cy="21.825" r="0.978"/><circle cx="51.76" cy="21.825" r="0.978"/><circle cx="55.283" cy="21.825" r="0.978"/><circle cx="58.805" cy="21.825" r="0.978"/><circle cx="62.326" cy="21.825" r="0.978"/><circle cx="65.849" cy="21.825" r="0.978"/><circle cx="69.369" cy="21.825" r="0.978"/><circle cx="72.892" cy="21.825" r="0.978"/><circle cx="27.108" cy="25.348" r="0.978"/><circle cx="30.631" cy="25.348" r="0.978"/><circle cx="34.153" cy="25.348" r="0.978"/><circle cx="37.674" cy="25.348" r="0.978"/><circle cx="41.196" cy="25.348" r="0.978"/><circle cx="44.717" cy="25.348" r="0.978"/><circle cx="48.24" cy="25.348" r="0.978"/><circle cx="51.76" cy="25.348" r="0.978"/><circle cx="55.283" cy="25.348" r="0.978"/><circle cx="58.805" cy="25.348" r="0.978"/><circle cx="62.326" cy="25.348" r="0.978"/><circle cx="65.849" cy="25.348" r="0.978"/><circle cx="69.369" cy="25.348" r="0.978"/><circle cx="72.892" cy="25.348" r="0.978"/><circle cx="76.413" cy="25.348" r="0.978"/><circle cx="79.935" cy="25.348" r="0.978"/><circle cx="83.458" cy="25.348" r="0.978"/><circle cx="5.978" cy="28.87" r="0.978"/><circle cx="9.499" cy="28.87" r="0.978"/><circle cx="13.022" cy="28.87" r="0.978"/><circle cx="27.108" cy="28.87" r="0.978"/><circle cx="30.631" cy="28.87" r="0.978"/><circle cx="34.153" cy="28.87" r="0.978"/><circle cx="37.674" cy="28.87" r="0.978"/><circle cx="41.196" cy="28.87" r="0.978"/><circle cx="44.717" cy="28.87" r="0.978"/><circle cx="48.24" cy="28.87" r="0.978"/><circle cx="51.76" cy="28.87" r="0.978"/><circle cx="55.283" cy="28.87" r="0.978"/><circle cx="58.805" cy="28.87" r="0.978"/><circle cx="62.326" cy="28.87" r="0.978"/><circle cx="65.849" cy="28.87" r="0.978"/><circle cx="69.369" cy="28.87" r="0.978"/><circle cx="72.892" cy="28.87" r="0.978"/><circle cx="76.413" cy="28.87" r="0.978"/><circle cx="79.935" cy="28.87" r="0.978"/><circle cx="83.458" cy="28.87" r="0.978"/><circle cx="5.978" cy="32.391" r="0.978"/><circle cx="9.499" cy="32.391" r="0.978"/><circle cx="13.022" cy="32.391" r="0.978"/><circle cx="16.544" cy="32.391" r="0.978"/><circle cx="20.065" cy="32.391" r="0.978"/><circle cx="23.587" cy="32.391" r="0.978"/><circle cx="27.108" cy="32.391" r="0.978"/><circle cx="30.631" cy="32.391" r="0.978"/><circle cx="34.153" cy="32.391" r="0.978"/><circle cx="37.674" cy="32.391" r="0.978"/><circle cx="41.196" cy="32.391" r="0.978"/><circle cx="44.717" cy="32.391" r="0.978"/><circle cx="48.24" cy="32.391" r="0.978"/><circle cx="51.76" cy="32.391" r="0.978"/><circle cx="55.283" cy="32.391" r="0.978"/><circle cx="58.805" cy="32.391" r="0.978"/><circle cx="62.326" cy="32.391" r="0.978"/><circle cx="65.849" cy="32.391" r="0.978"/><circle cx="69.369" cy="32.391" r="0.978"/><circle cx="72.892" cy="32.391" r="0.978"/><circle cx="76.413" cy="32.391" r="0.978"/><circle cx="79.935" cy="32.391" r="0.978"/><circle cx="83.458" cy="32.391" r="0.978"/><circle cx="5.978" cy="35.912" r="0.978"/><circle cx="9.499" cy="35.912" r="0.978"/><circle cx="13.022" cy="35.912" r="0.978"/><circle cx="16.544" cy="35.912" r="0.978"/><circle cx="20.065" cy="35.912" r="0.978"/><circle cx="23.587" cy="35.912" r="0.978"/><circle cx="27.108" cy="35.912" r="0.978"/><circle cx="30.631" cy="35.912" r="0.978"/><circle cx="34.153" cy="35.912" r="0.978"/><circle cx="37.674" cy="35.912" r="0.978"/><circle cx="41.196" cy="35.912" r="0.978"/><circle cx="44.717" cy="35.912" r="0.978"/><circle cx="48.24" cy="35.912" r="0.978"/><circle cx="51.76" cy="35.912" r="0.978"/><circle cx="55.283" cy="35.912" r="0.978"/><circle cx="58.805" cy="35.912" r="0.978"/><circle cx="62.326" cy="35.912" r="0.978"/><circle cx="65.849" cy="35.912" r="0.978"/><circle cx="69.369" cy="35.912" r="0.978"/><circle cx="72.892" cy="35.912" r="0.978"/><circle cx="76.413" cy="35.912" r="0.978"/><circle cx="79.935" cy="35.912" r="0.978"/><circle cx="16.544" cy="39.434" r="0.978"/><circle cx="20.065" cy="39.434" r="0.978"/><circle cx="23.587" cy="39.434" r="0.978"/><circle cx="27.108" cy="39.434" r="0.978"/><circle cx="30.631" cy="39.434" r="0.978"/><circle cx="34.153" cy="39.434" r="0.978"/><circle cx="37.674" cy="39.434" r="0.978"/><circle cx="41.196" cy="39.434" r="0.978"/><circle cx="44.717" cy="39.434" r="0.978"/><circle cx="48.24" cy="39.434" r="0.978"/><circle cx="51.76" cy="39.434" r="0.978"/><circle cx="55.283" cy="39.434" r="0.978"/><circle cx="58.805" cy="39.434" r="0.978"/><circle cx="62.326" cy="39.434" r="0.978"/><circle cx="65.849" cy="39.434" r="0.978"/><circle cx="69.369" cy="39.434" r="0.978"/><circle cx="72.892" cy="39.434" r="0.978"/><circle cx="76.413" cy="39.434" r="0.978"/><circle cx="79.935" cy="39.434" r="0.978"/><circle cx="23.587" cy="42.957" r="0.978"/><circle cx="27.108" cy="42.957" r="0.978"/><circle cx="30.631" cy="42.957" r="0.978"/><circle cx="34.153" cy="42.957" r="0.978"/><circle cx="37.674" cy="42.957" r="0.978"/><circle cx="41.196" cy="42.957" r="0.978"/><circle cx="44.717" cy="42.957" r="0.978"/><circle cx="48.24" cy="42.957" r="0.978"/><circle cx="51.76" cy="42.957" r="0.978"/><circle cx="55.283" cy="42.957" r="0.978"/><circle cx="58.805" cy="42.957" r="0.978"/><circle cx="62.326" cy="42.957" r="0.978"/><circle cx="65.849" cy="42.957" r="0.978"/><circle cx="69.369" cy="42.957" r="0.978"/><circle cx="72.892" cy="42.957" r="0.978"/><circle cx="76.413" cy="42.957" r="0.978"/><circle cx="23.587" cy="46.478" r="0.978"/><circle cx="27.108" cy="46.478" r="0.978"/><circle cx="30.631" cy="46.478" r="0.978"/><circle cx="34.153" cy="46.478" r="0.978"/><circle cx="37.674" cy="46.478" r="0.978"/><circle cx="41.196" cy="46.478" r="0.978"/><circle cx="44.717" cy="46.478" r="0.978"/><circle cx="48.24" cy="46.478" r="0.978"/><circle cx="51.76" cy="46.478" r="0.978"/><circle cx="55.283" cy="46.478" r="0.978"/><circle cx="58.805" cy="46.478" r="0.978"/><circle cx="62.326" cy="46.478" r="0.978"/><circle cx="65.849" cy="46.478" r="0.978"/><circle cx="69.369" cy="46.478" r="0.978"/><circle cx="72.892" cy="46.478" r="0.978"/><circle cx="23.587" cy="50" r="0.978"/><circle cx="27.108" cy="50" r="0.978"/><circle cx="30.631" cy="50" r="0.978"/><circle cx="34.153" cy="50" r="0.978"/><circle cx="37.674" cy="50" r="0.978"/><circle cx="41.196" cy="50" r="0.978"/><circle cx="44.717" cy="50" r="0.978"/><circle cx="48.24" cy="50" r="0.978"/><circle cx="51.76" cy="50" r="0.978"/><circle cx="55.283" cy="50" r="0.978"/><circle cx="58.805" cy="50" r="0.978"/><circle cx="62.326" cy="50" r="0.978"/><circle cx="65.849" cy="50" r="0.978"/><circle cx="69.369" cy="50" r="0.978"/><circle cx="72.892" cy="50" r="0.978"/><circle cx="76.413" cy="50" r="0.978"/><circle cx="27.108" cy="53.521" r="0.978"/><circle cx="30.631" cy="53.521" r="0.978"/><circle cx="34.153" cy="53.521" r="0.978"/><circle cx="37.674" cy="53.521" r="0.978"/><circle cx="41.196" cy="53.521" r="0.978"/><circle cx="44.717" cy="53.521" r="0.978"/><circle cx="48.24" cy="53.521" r="0.978"/><circle cx="51.76" cy="53.521" r="0.978"/><circle cx="55.283" cy="53.521" r="0.978"/><circle cx="58.805" cy="53.521" r="0.978"/><circle cx="62.326" cy="53.521" r="0.978"/><circle cx="65.849" cy="53.521" r="0.978"/><circle cx="69.369" cy="53.521" r="0.978"/><circle cx="72.892" cy="53.521" r="0.978"/><circle cx="76.413" cy="53.521" r="0.978"/><circle cx="27.108" cy="57.043" r="0.978"/><circle cx="30.631" cy="57.043" r="0.978"/><circle cx="34.153" cy="57.043" r="0.978"/><circle cx="37.674" cy="57.043" r="0.978"/><circle cx="41.196" cy="57.043" r="0.978"/><circle cx="44.717" cy="57.043" r="0.978"/><circle cx="48.24" cy="57.043" r="0.978"/><circle cx="51.76" cy="57.043" r="0.978"/><circle cx="55.283" cy="57.043" r="0.978"/><circle cx="58.805" cy="57.043" r="0.978"/><circle cx="62.326" cy="57.043" r="0.978"/><circle cx="65.849" cy="57.043" r="0.978"/><circle cx="69.369" cy="57.043" r="0.978"/><circle cx="72.892" cy="57.043" r="0.978"/><circle cx="76.413" cy="57.043" r="0.978"/><circle cx="27.108" cy="60.566" r="0.978"/><circle cx="30.631" cy="60.566" r="0.978"/><circle cx="34.153" cy="60.566" r="0.978"/><circle cx="37.674" cy="60.566" r="0.978"/><circle cx="41.196" cy="60.566" r="0.978"/><circle cx="44.717" cy="60.566" r="0.978"/><circle cx="48.24" cy="60.566" r="0.978"/><circle cx="51.76" cy="60.566" r="0.978"/><circle cx="55.283" cy="60.566" r="0.978"/><circle cx="58.805" cy="60.566" r="0.978"/><circle cx="62.326" cy="60.566" r="0.978"/><circle cx="65.849" cy="60.566" r="0.978"/><circle cx="69.369" cy="60.566" r="0.978"/><circle cx="72.892" cy="60.566" r="0.978"/><circle cx="76.413" cy="60.566" r="0.978"/><circle cx="27.108" cy="64.087" r="0.978"/><circle cx="30.631" cy="64.087" r="0.978"/><circle cx="34.153" cy="64.087" r="0.978"/><circle cx="37.674" cy="64.087" r="0.978"/><circle cx="41.196" cy="64.087" r="0.978"/><circle cx="44.717" cy="64.087" r="0.978"/><circle cx="48.24" cy="64.087" r="0.978"/><circle cx="51.76" cy="64.087" r="0.978"/><circle cx="55.283" cy="64.087" r="0.978"/><circle cx="58.805" cy="64.087" r="0.978"/><circle cx="62.326" cy="64.087" r="0.978"/><circle cx="65.849" cy="64.087" r="0.978"/><circle cx="69.369" cy="64.087" r="0.978"/><circle cx="72.892" cy="64.087" r="0.978"/><circle cx="76.413" cy="64.087" r="0.978"/><circle cx="27.108" cy="67.609" r="0.978"/><circle cx="30.631" cy="67.609" r="0.978"/><circle cx="34.153" cy="67.609" r="0.978"/><circle cx="37.674" cy="67.609" r="0.978"/><circle cx="41.196" cy="67.609" r="0.978"/><circle cx="44.717" cy="67.609" r="0.978"/><circle cx="48.24" cy="67.609" r="0.978"/><circle cx="51.76" cy="67.609" r="0.978"/><circle cx="55.283" cy="67.609" r="0.978"/><circle cx="58.805" cy="67.609" r="0.978"/><circle cx="62.326" cy="67.609" r="0.978"/><circle cx="65.849" cy="67.609" r="0.978"/><circle cx="69.369" cy="67.609" r="0.978"/><circle cx="72.892" cy="67.609" r="0.978"/><circle cx="76.413" cy="67.609" r="0.978"/><circle cx="27.108" cy="71.131" r="0.978"/><circle cx="30.631" cy="71.131" r="0.978"/><circle cx="34.153" cy="71.131" r="0.978"/><circle cx="37.674" cy="71.131" r="0.978"/><circle cx="41.196" cy="71.131" r="0.978"/><circle cx="44.717" cy="71.131" r="0.978"/><circle cx="48.24" cy="71.131" r="0.978"/><circle cx="51.76" cy="71.131" r="0.978"/><circle cx="55.283" cy="71.131" r="0.978"/><circle cx="58.805" cy="71.131" r="0.978"/><circle cx="62.326" cy="71.131" r="0.978"/><circle cx="65.849" cy="71.131" r="0.978"/><circle cx="69.369" cy="71.131" r="0.978"/><circle cx="72.892" cy="71.131" r="0.978"/><circle cx="76.413" cy="71.131" r="0.978"/><circle cx="79.935" cy="71.131" r="0.978"/><circle cx="27.108" cy="74.652" r="0.978"/><circle cx="30.631" cy="74.652" r="0.978"/><circle cx="34.153" cy="74.652" r="0.978"/><circle cx="37.674" cy="74.652" r="0.978"/><circle cx="41.196" cy="74.652" r="0.978"/><circle cx="44.717" cy="74.652" r="0.978"/><circle cx="48.24" cy="74.652" r="0.978"/><circle cx="51.76" cy="74.652" r="0.978"/><circle cx="55.283" cy="74.652" r="0.978"/><circle cx="58.805" cy="74.652" r="0.978"/><circle cx="62.326" cy="74.652" r="0.978"/><circle cx="65.849" cy="74.652" r="0.978"/><circle cx="69.369" cy="74.652" r="0.978"/><circle cx="72.892" cy="74.652" r="0.978"/><circle cx="76.413" cy="74.652" r="0.978"/><circle cx="79.935" cy="74.652" r="0.978"/><circle cx="23.587" cy="78.175" r="0.978"/><circle cx="27.108" cy="78.175" r="0.978"/><circle cx="30.631" cy="78.175" r="0.978"/><circle cx="34.153" cy="78.175" r="0.978"/><circle cx="37.674" cy="78.175" r="0.978"/><circle cx="41.196" cy="78.175" r="0.978"/><circle cx="44.717" cy="78.175" r="0.978"/><circle cx="48.24" cy="78.175" r="0.978"/><circle cx="51.76" cy="78.175" r="0.978"/><circle cx="55.283" cy="78.175" r="0.978"/><circle cx="69.369" cy="78.175" r="0.978"/><circle cx="72.892" cy="78.175" r="0.978"/><circle cx="76.413" cy="78.175" r="0.978"/><circle cx="30.631" cy="81.696" r="0.978"/><circle cx="34.153" cy="81.696" r="0.978"/><circle cx="37.674" cy="81.696" r="0.978"/><circle cx="41.196" cy="81.696" r="0.978"/><circle cx="44.717" cy="81.696" r="0.978"/><circle cx="48.24" cy="81.696" r="0.978"/><circle cx="51.76" cy="81.696" r="0.978"/><circle cx="94.022" cy="81.696" r="0.978"/><circle cx="48.24" cy="85.216" r="0.978"/><circle cx="51.76" cy="85.216" r="0.978"/><circle cx="90.501" cy="85.216" r="0.978"/><circle cx="94.022" cy="85.216" r="0.978"/><circle cx="90.501" cy="88.739" r="0.978"/><circle cx="94.022" cy="88.739" r="0.978"/><circle cx="90.501" cy="92.261" r="0.978"/><circle cx="94.022" cy="92.261" r="0.978"/></g></svg>