<svg id="pacman" xmlns="http://www.w3.org/2000/svg" xmlns:xlink="http://www.w3.org/1999/xlink" width="238.38" height="117" viewBox="0 0 238.38 117">
  <defs>
    <linearGradient id="linear-gradient" x1="1.459" y1="0.25" x2="0.5" y2="1" gradientUnits="objectBoundingBox">
      <stop offset="0" stop-color="#009fff"/>
      <stop offset="0.419" stop-color="#40025f"/>
      <stop offset="1" stop-color="#ec2f4b"/>
    </linearGradient>
  </defs>
  <g id="Groupe_55" data-name="Groupe 55" transform="translate(-4 -4)">
    <path id="Tracé_126" data-name="Tracé 126" d="M62.259,120.808c-30,1.133-39.621-3.118-39.621-3.118s14.434-3.89,39.621-4.456,40.754,4.535,40.754,4.535S92.258,119.674,62.259,120.808Z" fill="rgba(48,46,46,0.11)"/>
  </g>
  <g id="Groupe_56" data-name="Groupe 56" transform="translate(0 -5)">
    <path id="Tracé_127" data-name="Tracé 127" d="M146,119.212c-9.084.329-12-.9-12-.9a57.785,57.785,0,0,1,12-1.294,42.023,42.023,0,0,1,12.341,1.316A111.166,111.166,0,0,1,146,119.212Z" fill="rgba(48,46,46,0.02)"/>
  </g>
  <g id="Groupe_57" data-name="Groupe 57" transform="translate(0 -5)">
    <path id="Tracé_128" data-name="Tracé 128" d="M185.337,119.212c-9.084.329-12-.9-12-.9a57.785,57.785,0,0,1,12-1.294,42.023,42.023,0,0,1,12.341,1.316A111.165,111.165,0,0,1,185.337,119.212Z" fill="rgba(48,46,46,0.02)"/>
  </g>
  <g id="Groupe_58" data-name="Groupe 58" transform="translate(0 -5)">
    <path id="Tracé_129" data-name="Tracé 129" d="M224.676,119.212c-9.085.329-12-.9-12-.9a57.772,57.772,0,0,1,12-1.294,42.012,42.012,0,0,1,12.34,1.316A111.123,111.123,0,0,1,224.676,119.212Z" fill="rgba(48,46,46,0.02)"/>
  </g>
  <path id="Tracé_130" data-name="Tracé 130" d="M0,56.687A56.6,56.6,0,0,0,106.873,82.763l-39.8-26.076,39.8-26.076A56.6,56.6,0,0,0,0,56.687Z" fill="url(#linear-gradient)"/>
  <ellipse id="Ellipse_11" data-name="Ellipse 11" cx="8.773" cy="8.787" rx="8.773" ry="8.787" transform="translate(133.162 47.617)" fill="url(#linear-gradient)"/>
  <ellipse id="Ellipse_12" data-name="Ellipse 12" cx="8.773" cy="8.787" rx="8.773" ry="8.787" transform="translate(176.998 47.617)" fill="url(#linear-gradient)"/>
  <ellipse id="Ellipse_13" data-name="Ellipse 13" cx="8.773" cy="8.787" rx="8.773" ry="8.787" transform="translate(220.834 47.617)" fill="url(#linear-gradient)"/>
</svg>
