<svg xmlns="http://www.w3.org/2000/svg" xmlns:xlink="http://www.w3.org/1999/xlink" width="261.609" height="165.182" viewBox="0 0 261.609 165.182">
  <defs>
    <linearGradient id="linear-gradient" x1="0.95" y1="-0.043" x2="0.011" y2="0.98" gradientUnits="objectBoundingBox">
      <stop offset="0" stop-color="#dadada" stop-opacity="0.184"/>
      <stop offset="1" stop-color="#dadada" stop-opacity="0.569"/>
    </linearGradient>
    <linearGradient id="linear-gradient-2" x1="1.206" x2="0.13" y2="1.232" gradientUnits="objectBoundingBox">
      <stop offset="0" stop-color="#009fff"/>
      <stop offset="0.419" stop-color="#40025f"/>
      <stop offset="1" stop-color="#ec2f4b"/>
    </linearGradient>
    <linearGradient id="linear-gradient-4" x1="0.5" y1="0" x2="0.5" y2="1" xlink:href="#linear-gradient-2"/>
  </defs>
  <g id="Groupe_66" data-name="Groupe 66" transform="translate(352 -979)">
    <g id="Groupe_64" data-name="Groupe 64" transform="translate(-324.647 977)">
      <ellipse id="Ellipse_14" data-name="Ellipse 14" cx="59.928" cy="11" rx="59.928" ry="11" transform="translate(4 112)" fill="rgba(48,46,46,0.04)"/>
    </g>
    <g id="Groupe_65" data-name="Groupe 65" transform="translate(-3)">
      <g id="Groupe_61" data-name="Groupe 61" transform="translate(-353.03 978.544)">
        <ellipse id="Ellipse_15" data-name="Ellipse 15" cx="20.23" cy="7.325" rx="20.23" ry="7.325" transform="matrix(0.966, -0.259, 0.259, 0.966, 150.91, 151.488)" fill="rgba(48,46,46,0.04)"/>
      </g>
      <path id="Tracé_146" data-name="Tracé 146" d="M-162.029,1127.33s32.439-30.652,62.113-38.885-2.692-5.472-2.692-5.472-49.145,31.563-60.657,41.814Z" fill="url(#linear-gradient)"/>
    </g>
    <g id="socomptoir" transform="translate(-353.03 978.544)">
      <g id="Groupe_60" data-name="Groupe 60">
        <path id="Tracé_136" data-name="Tracé 136" d="M170.97,56.073c0,37.258-32.443,67.461-80.593,67.461S9.784,93.331,9.784,56.073c0,0,33.988,12.359,80.593,12.359S170.97,56.073,170.97,56.073Z" fill="url(#linear-gradient-2)"/>
      </g>
      <path id="Tracé_137" data-name="Tracé 137" d="M9.662,51.8C5.149,45.964-2.523,31.58,2.892,20.752s6.769-9.465,6.769-7.431a41.836,41.836,0,0,1,14.876,13.8C30.108,16.948,46.214-2.548,66.07.849a83.308,83.308,0,0,1-4.8,26.273c5.83-3.538,19.69-8.492,28.489,0a15.2,15.2,0,0,1,4.679,8.8,27.141,27.141,0,0,1,11.236-1.165c-1.371-7.145.411-21.435,18.512-21.435s20.055,15.067,18.77,22.6c2.828-13.145,23.4-20.644,23.4-20.644s9.77,18.086,3.6,36.524c0,0-24.734,9.448-53.315,7.876,0,0-13.9,10.557-26.879,1.545,0,0-10.972,4.635-21.013,4.635s-22.659-6.18-22.659-6.18H32.958L18.281,55.816Z" fill="url(#linear-gradient-2)"/>
      <path id="Tracé_138" data-name="Tracé 138" d="M14.015,61.223l.016.106c.831.358,5.46,1.5,5.46,1.5,0,13.586,19.87,39.751,35.1,48.863-28.4-12.735-38.87-39.332-40.556-50.362C13.877,61.262,13.854,61.223,14.015,61.223Z" fill="rgba(245,245,245,0.12)"/>
      <path id="Tracé_139" data-name="Tracé 139" d="M94.389,72.761C49.844,74.306,19.846,64.779,19,64.522c0,0-11.273-6.131.314-1.754S70.483,72.942,94.389,72.761Z" fill="rgba(245,245,245,0.03)"/>
      <path id="Tracé_140" data-name="Tracé 140" d="M9.784,16.42c-1.537,14.78,6.307,25.024,10.421,28.3l1.29-2.235C15.916,39.261,9.9,24.861,9.784,16.42Z" fill="rgba(245,245,245,0.12)"/>
      <path id="Tracé_141" data-name="Tracé 141" d="M63.341,4.576c-20.71,9.56-28.264,28.359-29.452,36.563h3.939C37.829,30.973,52.273,11.394,63.341,4.576Z" fill="rgba(245,245,245,0.12)"/>
      <path id="Tracé_142" data-name="Tracé 142" d="M167.623,22.857c2.472,7.828-1.03,18.539-3.09,22.916h-5.665C161.958,45.771,166.421,30.5,167.623,22.857Z" fill="rgba(245,245,245,0.12)"/>
      <path id="Tracé_143" data-name="Tracé 143" d="M80.85,30.23c8.033.606,10.214,4.435,10.3,6.274,0-5.926-1.93-8.806-10.3-9.62-8.637-.84-15.508,1.558-19.054,7C63.685,31.887,72.817,29.624,80.85,30.23Z" fill="rgba(245,245,245,0.12)"/>
      <path id="Tracé_144" data-name="Tracé 144" d="M122.971,19.755c6.23-2.358,9.833.791,10.855,2.66-3.091-6.127-6.014-8.386-12.6-6.119-6.8,2.339-10.6,7.371-10.376,14.312C111.2,27.844,116.741,22.113,122.971,19.755Z" fill="rgba(245,245,245,0.12)"/>
      <path id="Tracé_145" data-name="Tracé 145" d="M160.676,142.125c-6.139,4.186-13.72,13.163-12.557,16.045s1.554,4.883,7.674,4.883c6.976,0,19.742-5.914,23.369-9.069s4.186-10.464,4.186-11.859L211.6,118.88c5.929-5.93,28.182-27.625,30.694-30.694A18.7,18.7,0,0,0,233.575,84c-8.048,13.972-31.741,42.915-52.669,54.064C176.023,138.537,166.815,137.939,160.676,142.125Z" fill="url(#linear-gradient-4)"/>
    </g>
  </g>
</svg>
