<svg xmlns="http://www.w3.org/2000/svg" xmlns:xlink="http://www.w3.org/1999/xlink" width="259" height="134" viewBox="0 0 259 134">
  <defs>
    <linearGradient id="linear-gradient" x1="0.5" x2="0.5" y2="1" gradientUnits="objectBoundingBox">
      <stop offset="0" stop-color="#009fff"/>
      <stop offset="0.419" stop-color="#40025f"/>
      <stop offset="1" stop-color="#ec2f4b"/>
    </linearGradient>
  </defs>
  <g id="shoe" transform="translate(-4)">
    <g id="Groupe_59" data-name="Groupe 59">
      <ellipse id="Ellipse_14" data-name="Ellipse 14" cx="129.5" cy="11" rx="129.5" ry="11" transform="translate(4 112)" fill="rgba(48,46,46,0.09)"/>
    </g>
    <path id="Tracé_131" data-name="Tracé 131" d="M8.8,87.581c-1.829-3.7,0-5.14.407-5.757a35.718,35.718,0,0,1,4.879-5.962c1.645-1.663,3.54-1.85,5.692-1.85,8.456,0,46.144-5.414,46.55-5.757s.488-4.605,22.767-16.447c27.849-14.8,36.793-20.353,47.364-28.988C140.726,10.9,154.142,0,155.971,0c1.464,0,2.778,1.645,3.253,2.467,6.693,6.769,15.652,5,15.652,18.3,11.944,15.463,31.385,19.075,48.177,13.98,1.626-.493,8-9.526,10.977-13.98,2.875-2.908,5.665-6.579,10.164-6.579,2.732,0,4.892,8.252,5.9,10.279,2.432,4.921,3.675,13.191,4.248,20.764a116.254,116.254,0,0,1-26.812,6.99c-15.246,2.056-46.754,7.4-46.754,7.4s-26.48,3.331-34.76,0c-5.373-2.161-4.791-10.086,2.642-16.447-27.542,9.133-26.637,32.993-14.026,35.361,25.038,4.7,105.086-21.9,120.075-26.315.043,1.483.062,2.869.062,4.112,0,10.787-.566,20.64,1.236,31.169-14.473,9.046-68.182,8.236-93.727,6.865-2.71,1.1-9.473,2.632-14.839,0s-21.073.411-28.256,2.261C118.5,98.751,116.17,103,112.267,103s-8.267-3.563-9.961-5.345L69.172,99.3c-1.355,1.234-4.838,3.7-7.928,3.7s-6.166-3.563-7.318-5.345L28.72,94.365c.135,1.371-.935,3.947-6.3,3.289S11.1,90.665,8.8,87.581Z" fill="url(#linear-gradient)"/>
    <path id="Tracé_132" data-name="Tracé 132" d="M11.032,107.037c-.809-.975-2.358-5.689-3.032-7.925a27.259,27.259,0,0,1,.809-6.706c2.291,3.048,8.207,9.307,13.543,9.958s6.4-1.9,6.266-3.252l25.065,3.252c1.146,1.761,4.2,5.283,7.277,5.283s6.536-2.438,7.883-3.658l32.949-1.625c1.684,1.761,6.023,5.283,9.9,5.283s6.2-4.2,6.873-6.3c7.142-1.829,22.761-4.837,28.1-2.236s12.061,1.084,14.756,0c25.4,1.355,79.8,1.829,94.2-7.112v5.283c2.291,3.658,6.186,12.64,3.436,19.3-3.436,8.332-23.245,9.551-29.916,11.99-5.336,1.95-12.33.406-15.16-.61-1.146-2.439-4.205-7.316-7.277-7.316-4.911,0-5.536,4.566-6.873,7.926-.4,1.016-5.053,1.422-6.266,1.422-1.78-7.158-6.01,0-8.692,0-2.1,0-13.678-1.9-19.2-2.845-2.962-23.821-16.617-8.971-23.246,0-4.5.787-9.212-1.422-14.149-1.422-1.838,0-7.212,1.764-11.724,1.422-3.354-15.17-7.706-2.022-14.756.813H89.866a16.481,16.481,0,0,0-1.415-2.235c-.4-.407-.606-.407-1.617,0-.809.325-.876,1.625-.809,2.235-.809,0-9.9,0-10.915-.813-3.161-2.542-6.528-8.143-10.309-6.1-2.448,1.846-5.113,4.624-8.288,5.08l-8.085-.813c-1.852-3.1-2.568-1.422-5.458-1.422-2.089-.881-6.347-2.723-6.671-3.048-1.773-1.782-10.866-12.436-11.522-6.5-3.167-1.287-9.743-3.942-10.713-4.267C12.851,109.679,12.043,108.257,11.032,107.037Z" fill="url(#linear-gradient)"/>
    <path id="Tracé_133" data-name="Tracé 133" d="M167.5,78.5c2.4-.8,59.167-16.667,87-24.5V52l-1,.5C232.333,58.973,187.8,71.935,177,74c-13.5,2.581-33.5,6.5-41,4.5-7.247-1.933-9-4-9.5-9.5-.4-4.4,2.5-11.5,4.5-14.5-4,4.5-8.5,12-7.5,18S133.5,83,137,83,164.5,79.5,167.5,78.5Z" fill="rgba(245,245,245,0.07)"/>
    <path id="Tracé_134" data-name="Tracé 134" d="M11.449,84.5c0-3.6,2.333-7.167,3.5-8.5-6.295,6.744-8.557,8.438-2,15.5,6.5,7,12.551,6,13.551,5.5a4.447,4.447,0,0,0,2-2.5l-4-1.5C21,91.833,11.449,88.1,11.449,84.5Z" fill="rgba(245,245,245,0.06)"/>
    <path id="Tracé_135" data-name="Tracé 135" d="M211.5,105c21.2-1.2,38.333-5.5,44-7.5V92c-11,8-74,8-94,7-2,.5-5.4,1.966-13-.434s-24.167,1.434-30,2.934c-.5,3-2,4.066-6,6.066-5.937,0-10.568-4.634-11.957-6.023l-.043-.043L69,103.566l-3.5,2c-1.167.311-3.793,1.645-6.5.928-3.5-.928-3.5-1.5-3.5-3.5,0-1.6-3.5-2.661-5-2.994-6-1-19.5-2-21.5-2.5C28.5,99,28,99,28,99l22.5,3.5a7.107,7.107,0,0,0,4,6c3.2,1.6,9.864-.092,12.8-1.138l.2.2a20.372,20.372,0,0,0,12,0c5.6-1.6,15.333-2.667,19-2,1.5,1.833,7.2,5.234,12,6.434,6,1.5,8.5-1.934,12.5-6.434a7.614,7.614,0,0,1,9-2c1-.667,5.2-1.2,14,2,11,4,13-.5,18,0S185,106.5,211.5,105Z" fill="rgba(245,245,245,0.06)"/>
  </g>
</svg>
