<svg width="70" height="70" viewBox="0 0 70 70" fill="none" xmlns="http://www.w3.org/2000/svg">
<path d="M67.9 33.7999H36.2V2.0999C36.2 1.3999 35.6 0.899902 35 0.899902C34.3 0.899902 33.8 1.4999 33.8 2.0999V33.7999H2.10003C1.40003 33.7999 0.900024 34.3999 0.900024 34.9999C0.900024 35.5999 1.50003 36.1999 2.10003 36.1999H33.8V67.8999C33.8 68.5999 34.4 69.0999 35 69.0999C35.7 69.0999 36.2 68.4999 36.2 67.8999V36.1999H67.9C68.6 36.1999 69.1 35.5999 69.1 34.9999C69.1 34.3999 68.6 33.7999 67.9 33.7999Z" fill="url(#paint0_linear)"/>
<path d="M18.1 21.9001C17.9 22.1001 17.6 22.2001 17.3 22.3001C17 22.4001 16.5 22.4001 16 22.4001C14.9 22.4001 14.1 22.3001 13.3 22.1001C12.6 21.9001 12 21.6001 11.5 21.4001L10.4 24.4001C10.6 24.5001 10.9 24.7001 11.2 24.8001C11.5 24.9001 11.9 25.1001 12.4 25.2001C12.9 25.3001 13.4 25.4001 14 25.5001C14.6 25.6001 15.3 25.6001 16 25.6001C18.2 25.6001 19.8 25.2001 20.9 24.3001C22 23.4001 22.5 22.2001 22.5 20.7001C22.5 19.9001 22.4 19.2001 22.2 18.7001C22 18.1001 21.7 17.7001 21.3 17.2001C20.9 16.8001 20.3 16.4001 19.7 16.1001C19.1 15.8001 18.3 15.5001 17.4 15.2001C17 15.1001 16.6 14.9001 16.3 14.8001C16 14.7001 15.7 14.5001 15.4 14.3001C15.1 14.1001 14.9 13.9001 14.8 13.7001C14.7 13.5001 14.6 13.2001 14.6 12.9001C14.6 12.4001 14.8 12.0001 15.2 11.8001C15.6 11.6001 16.2 11.4001 17.1 11.4001C17.9 11.4001 18.6 11.5001 19.2 11.7001C19.8 11.9001 20.3 12.1001 20.7 12.3001L21.8 9.3001C21.3 9.0001 20.6 8.7001 19.8 8.5001C19 8.3001 18 8.1001 16.9 8.1001C16 8.1001 15.1 8.2001 14.4 8.4001C13.6 8.6001 13 9.0001 12.5 9.4001C12 9.8001 11.6 10.4001 11.3 11.0001C11 11.6001 10.9 12.3001 10.9 13.1001C10.9 13.9001 11 14.5001 11.3 15.1001C11.6 15.6001 11.9 16.1001 12.4 16.5001C12.8 16.9001 13.3 17.2001 13.9 17.4001C14.4 17.6001 15 17.9001 15.5 18.1001C16.7 18.5001 17.6 18.9001 18.1 19.3001C18.6 19.7001 18.9 20.1001 18.9 20.7001C18.9 21.0001 18.9 21.2001 18.8 21.4001C18.5 21.6001 18.4 21.8001 18.1 21.9001Z" fill="url(#paint1_linear)"/>
<path d="M49.4001 24.3H52.5C53 22.9 53.5 21.4 54 19.9C54.5 18.4 54.9001 16.8 55.4001 15.2C55.9001 16.8 56.3001 18.3 56.8001 19.9C57.3001 21.4 57.8001 22.9 58.3001 24.3H61.4001C62.2001 21.9 62.9 19.4 63.6 16.8C64.3 14.2 64.9001 11.6 65.4001 9H61.8001C61.7001 9.9 61.5001 10.8 61.3001 11.7C61.1001 12.6 61.0001 13.6 60.8001 14.5C60.6001 15.4 60.4 16.3 60.2 17.2C60 18.1 59.8 18.9 59.6 19.6C59.4 18.9 59.1001 18.2 58.9001 17.4C58.7001 16.6 58.4 15.8 58.2 15C58 14.2 57.7 13.4 57.5 12.7C57.3 11.9 57.1001 11.3 56.9001 10.7H54C53.8 11.3 53.7 12 53.5 12.7C53.3 13.4 53.1001 14.2 52.8001 15C52.6001 15.8 52.3 16.6 52.1 17.4C51.9 18.2 51.6001 19 51.3001 19.7C51.1001 19 50.9 18.1 50.7 17.3C50.5 16.4 50.3 15.5 50.1 14.6C49.9 13.7 49.7 12.7 49.5 11.8C49.3 10.9 49.2 10 49 9.1H45.3C45.8 11.7 46.4 14.2 47.1 16.9C47.9 19.4 48.7001 21.9 49.4001 24.3Z" fill="url(#paint2_linear)"/>
<path d="M22.9001 46.0998C22.1001 45.3998 21.3 44.7998 20.3 44.3998C19.3 43.9998 18.2 43.7998 17.1 43.7998C16 43.7998 14.9 43.9998 13.9 44.3998C12.9 44.7998 12 45.2998 11.3 46.0998C10.5 46.7998 9.90005 47.6998 9.50005 48.7998C9.10005 49.8998 8.80005 51.0998 8.80005 52.5998C8.80005 53.9998 9.00005 55.2998 9.40005 56.3998C9.80005 57.4998 10.4001 58.3998 11.2001 59.0998C12.0001 59.7998 12.8 60.3998 13.8 60.6998C14.8 61.0998 15.9 61.2998 17 61.2998C18.2 61.2998 19.3 61.0998 20.3 60.6998C21.3 60.2998 22.2001 59.7998 22.9001 59.0998C23.6001 58.3998 24.2 57.4998 24.6 56.3998C25 55.2998 25.2001 54.0998 25.2001 52.5998C25.2001 51.1998 25 49.8998 24.6 48.7998C24.2 47.7998 23.6001 46.8998 22.9001 46.0998ZM21.1 54.7998C20.9 55.4998 20.6 55.9998 20.2001 56.4998C19.8001 56.9998 19.4 57.2998 18.8 57.5998C18.3 57.8998 17.7 57.9998 17 57.9998C16.3 57.9998 15.7 57.8998 15.1 57.5998C14.6 57.2998 14.1001 56.9998 13.7001 56.4998C13.3001 55.9998 13 55.4998 12.8 54.7998C12.6 54.0998 12.5 53.3998 12.5 52.5998C12.5 51.7998 12.6 51.0998 12.8 50.3998C13 49.6998 13.3001 49.1998 13.7001 48.6998C14.1001 48.1998 14.5001 47.8998 15.1 47.5998C15.6 47.2998 16.3 47.1998 17 47.1998C17.7 47.1998 18.3001 47.2998 18.9001 47.5998C19.5001 47.8998 19.9 48.1998 20.3 48.6998C20.7 49.1998 21.0001 49.6998 21.2001 50.3998C21.4001 51.0998 21.5 51.7998 21.5 52.5998C21.4 53.3998 21.3 54.1998 21.1 54.7998Z" fill="url(#paint3_linear)"/>
<path d="M48.5 48.4998H53.5V61.8998H57.3V48.4998H62.3V45.2998H48.5V48.4998Z" fill="url(#paint4_linear)"/>
<defs>
<linearGradient id="paint0_linear" x1="0.900023" y1="4.3781" x2="47.1396" y2="70.7367" gradientUnits="userSpaceOnUse">
<stop stop-color="#009FFF"/>
<stop offset="0.463" stop-color="#40025F"/>
<stop offset="1" stop-color="#EC2F4B"/>
</linearGradient>
<linearGradient id="paint1_linear" x1="10.4" y1="8.9926" x2="23.0472" y2="21.5421" gradientUnits="userSpaceOnUse">
<stop stop-color="#009FFF"/>
<stop offset="0.463" stop-color="#40025F"/>
<stop offset="1" stop-color="#EC2F4B"/>
</linearGradient>
<linearGradient id="paint2_linear" x1="45.3" y1="9.7803" x2="54.4547" y2="27.0398" gradientUnits="userSpaceOnUse">
<stop stop-color="#009FFF"/>
<stop offset="0.463" stop-color="#40025F"/>
<stop offset="1" stop-color="#EC2F4B"/>
</linearGradient>
<linearGradient id="paint3_linear" x1="8.80005" y1="44.6923" x2="20.912" y2="60.9816" gradientUnits="userSpaceOnUse">
<stop stop-color="#009FFF"/>
<stop offset="0.463" stop-color="#40025F"/>
<stop offset="1" stop-color="#EC2F4B"/>
</linearGradient>
<linearGradient id="paint4_linear" x1="48.5" y1="46.1464" x2="60.3127" y2="60.2394" gradientUnits="userSpaceOnUse">
<stop stop-color="#009FFF"/>
<stop offset="0.463" stop-color="#40025F"/>
<stop offset="1" stop-color="#EC2F4B"/>
</linearGradient>
</defs>
</svg>
